<?xml version="1.0" encoding="utf-8"?>
<!-- Generator: Adobe Illustrator 25.2.3, SVG Export Plug-In . SVG Version: 6.00 Build 0)  -->
<svg version="1.1" id="Layer_2_1_" xmlns="http://www.w3.org/2000/svg" xmlns:xlink="http://www.w3.org/1999/xlink" x="0px" y="0px"
	 viewBox="0 0 1332.7 580.4" style="enable-background:new 0 0 1332.7 580.4;" xml:space="preserve">
<style type="text/css">
	.st0{fill:#FFFA71;}
	.st1{fill:#212121;}
	.st2{fill:#ECFF99;}
	.st3{fill:#8BA4E8;}
	.st4{fill:#FFB25D;}
	.st5{fill:#FFDB5D;}
	.st6{fill:#57BDBD;}
	.st7{fill:#FFFFFF;}
	.st8{fill:#FF5055;}
	.st9{fill:#D9EAF7;}
	.st10{fill:#A0C0E4;}
	.st11{fill:#2679BE;}
	.st12{fill:#7289DA;}
	.st13{fill:#E6EBF4;}
	.st14{fill:#9D84FF;}
	.st15{fill:#C09EFF;}
	.st16{fill:#55E2C6;}
	.st17{fill:#5CD695;}
	.st18{fill:#FFED6C;}
	.st19{fill:#3868B0;}
	.st20{fill:#4180C2;}
</style>
<g>
	<path class="st0" d="M1062.4,543.2l7.7-4.1c1.1-0.6,1.8-1.6,1.9-2.8l1-8.6c0.4-3,4-4.4,6.2-2.2l6.2,6c0.9,0.8,2.1,1.2,3.3,1
		l8.5-1.7c3-0.6,5.4,2.5,4,5.2l-3.8,7.8c-0.5,1.1-0.5,2.4,0.1,3.4l4.2,7.5c1.5,2.7-0.7,5.9-3.7,5.5l-8.6-1.2
		c-1.2-0.2-2.4,0.3-3.2,1.2l-5.9,6.4c-2.1,2.3-5.8,1.2-6.4-1.9l-1.5-8.5c-0.2-1.2-1-2.2-2.1-2.7l-7.9-3.6
		C1059.8,548.5,1059.7,544.6,1062.4,543.2z"/>
	<g>
		<path class="st1" d="M1077.7,570.2c-0.6,0-1.2-0.1-1.8-0.3c-2.3-0.7-3.9-2.5-4.4-4.9l-1.5-8.5c-0.1-0.4-0.3-0.7-0.7-0.9l-7.9-3.6
			c-2.2-1-3.5-3.1-3.6-5.5c-0.1-2.4,1.2-4.5,3.3-5.6l7.6-4.1c0.3-0.2,0.6-0.5,0.6-0.9l1-8.6c0.3-2.4,1.8-4.3,4.1-5.1
			c2.2-0.8,4.7-0.3,6.4,1.4l2.3,2.2c1,1,1,2.5,0.1,3.5c-1,1-2.5,1-3.5,0.1l-2.3-2.2c-0.5-0.5-1-0.3-1.2-0.3c-0.2,0.1-0.7,0.3-0.8,1
			l-1,8.6c-0.2,2-1.5,3.8-3.3,4.8l-7.6,4.1c-0.6,0.3-0.6,0.9-0.6,1.1s0.1,0.8,0.7,1l7.9,3.6c1.9,0.9,3.2,2.6,3.5,4.6l1.5,8.5
			c0.1,0.7,0.6,0.9,0.8,0.9c0.2,0.1,0.8,0.2,1.2-0.3l5.9-6.4c1.4-1.5,3.4-2.2,5.4-1.9l8.6,1.2c0.7,0.1,1-0.3,1.2-0.5
			c0.1-0.2,0.4-0.7,0.1-1.3l-4.2-7.5c-1-1.8-1.1-3.9-0.2-5.8l3.8-7.8c0.3-0.6,0-1.1-0.1-1.3s-0.5-0.6-1.2-0.4l-3.3,0.7
			c-1.4,0.3-2.7-0.6-2.9-2c-0.3-1.4,0.6-2.7,2-2.9l3.3-0.7c2.3-0.5,4.7,0.4,6.1,2.3c1.5,1.9,1.7,4.4,0.7,6.5l-3.8,7.8
			c-0.2,0.4-0.2,0.8,0,1.1l4.2,7.5c1.2,2.1,1.1,4.6-0.3,6.5c-1.3,2-3.6,3-6,2.6l-8.6-1.2c-0.4-0.1-0.8,0.1-1,0.4l-5.9,6.4
			C1081,569.5,1079.4,570.2,1077.7,570.2z"/>
	</g>
</g>
<g>
	<g>
		<path class="st2" d="M732.2,543.7c4.8-0.8,10.1-2.3,15.7-4.4c9.2-3.5,19.3-8.7,29.5-15.8s18.5-14.8,25-22.3
			c13.3-15.6,18.2-30.3,13.1-37.7c-5.3-7.6-20.6-6.6-39.9,1.9c3.7,1.2,7.2,3,10.4,5.3c8.7-3.1,14.9-3.3,17.1-0.2
			c2,2.9,0.4,8.5-4.4,15.4c-5.5,8-15.3,17.7-28.6,27c-13.3,9.3-25.8,15.1-35.2,17.6c-8.2,2.1-14,1.7-16-1.1c-2.1-3.1,0.2-8.8,6.1-16
			c-1.1-3.8-1.5-7.7-1.4-11.6C709,517,702.9,531,708.2,538.6c1.6,2.3,4.3,3.9,7.7,4.9"/>
		<path class="st1" d="M732.2,546c-1.1,0-2.1-0.8-2.3-1.9c-0.2-1.3,0.6-2.5,1.9-2.7c4.8-0.8,9.9-2.2,15.3-4.2
			c9.5-3.6,19.5-8.9,29-15.5c9.4-6.6,17.9-14.2,24.5-21.9c12.3-14.3,17.5-28.4,12.9-34.9c-4-5.7-16.3-5.4-31.9,0.6
			c1.6,0.8,3.2,1.7,4.7,2.7c9.5-3.2,15.9-2.8,18.6,1c2.7,3.8,1.1,10-4.4,18c-6.2,9-16.6,18.8-29.2,27.6
			c-12.6,8.8-25.3,15.2-35.9,17.9c-9.4,2.5-15.8,1.8-18.5-2c-2.7-3.9-0.8-10,5.4-17.8c-0.4-1.8-0.8-3.6-1-5.4
			c-11,12.6-15.5,24.1-11.5,29.8c1.3,1.8,3.4,3.2,6.4,4c1.2,0.3,2,1.6,1.6,2.8c-0.3,1.2-1.6,2-2.8,1.6c-4-1.1-7.1-3-9-5.8
			c-5.9-8.5-0.1-23.4,15.7-39.7l4.1-4.3l-0.2,5.9c-0.1,3.7,0.4,7.3,1.4,10.9l0.3,1.2l-0.8,0.9c-6.1,7.3-7,11.7-6,13.2
			c1.1,1.6,5.7,2.3,13.5,0.2c10.1-2.6,22.3-8.8,34.4-17.3c12.1-8.5,22.1-17.9,28-26.4c4.6-6.6,5.5-11.2,4.4-12.8
			c-1-1.5-5.4-2.1-14.4,1.1l-1.1,0.4l-1-0.7c-3-2.1-6.3-3.8-9.8-5l-5.6-1.9l5.4-2.4c20.8-9.2,36.7-9.6,42.7-1.1s0.9,24.1-13.2,40.5
			c-7,8.1-15.5,15.7-25.4,22.6c-9.9,6.9-20,12.3-30,16.1c-5.6,2.1-11.1,3.6-16.1,4.5C732.5,546,732.4,546,732.2,546z"/>
	</g>
	<g>
		<path class="st3" d="M723.5,504.9c0-0.1,0-0.2,0-0.2S723.5,504.8,723.5,504.9z"/>
		<polygon class="st1" points="721.2,505 721.2,504.8 725.8,504.6 725.8,504.7 		"/>
	</g>
	<g>
		<path class="st3" d="M783.5,469.1C783.5,469.2,783.5,469.2,783.5,469.1C783.5,469.2,783.5,469.2,783.5,469.1z"/>
		<path class="st1" d="M782.3,471.2l-0.1-0.1l1.7-2.7L782.3,471.2z M783.5,469.1l1.2-2L783.5,469.1z"/>
	</g>
	<g>
		<path class="st1" d="M725.8,534.2c-4.2,0-7.2-1.2-8.9-3.5c-2.8-4-0.7-10.5,6.2-18.8l2.8-3.4l1.2,4.3c1.1,4.1,2.9,7.9,5.3,11.3
			c1.2,1.7,2.5,3.3,4,4.8l2.8,2.8l-3.9,1C731.7,533.8,728.5,534.2,725.8,534.2z M724.1,518.3c-3.7,5.3-4.3,8.6-3.4,9.8
			c0.9,1.3,4.2,2,9.7,1c-0.6-0.8-1.2-1.6-1.8-2.4C726.8,524.1,725.3,521.3,724.1,518.3z"/>
	</g>
	<g>
		<path class="st3" d="M778.2,466.4c0.1,0,0.1,0.1,0.2,0.1C778.3,466.5,778.2,466.5,778.2,466.4z"/>
		<polygon class="st1" points="777.5,468.7 777.2,468.6 779.1,464.3 779.2,464.4 778.4,466.5 		"/>
	</g>
	<g>
		<path class="st3" d="M723.8,507.7L723.8,507.7L723.8,507.7z"/>
		<polygon class="st1" points="721.7,508.7 721.5,508.3 721.5,507.7 723.8,507.7 725.8,506.7 723.8,507.7 726.1,507.7 723.8,507.7 
					"/>
	</g>
	<g>
		<path class="st3" d="M780.9,467.7L780.9,467.7L780.9,467.7z"/>
		<polygon class="st1" points="780.4,470 780.9,467.8 779.7,469.7 780.9,467.8 781.5,465.5 781.9,465.6 782.2,465.8 780.9,467.7 		
			"/>
	</g>
	<g>
		<path class="st3" d="M724.2,510.6L724.2,510.6L724.2,510.6z"/>
		<path class="st1" d="M722,511l2.3-0.4L722,511z M721.9,511L721.9,511L721.9,511z M723.6,510.7l0.6-0.1l2.3-0.4L723.6,510.7z"/>
	</g>
	<g>
		<path class="st3" d="M780.9,467.7c0.9,0.4,1.7,0.9,2.5,1.4C782.6,468.6,781.8,468.2,780.9,467.7z"/>
		<path class="st1" d="M782.3,471.1L782.3,471.1L782.3,471.1L782.3,471.1c-0.4-0.3-0.9-0.5-1.3-0.8c-0.4-0.2-0.7-0.4-1.1-0.6l0,0
			l0,0l2.1-4.1l0,0l0,0l0,0c0.4,0.2,0.8,0.4,1.2,0.6c0.5,0.3,1,0.6,1.5,0.9L782.3,471.1z"/>
	</g>
	<g>
		<path class="st3" d="M775.6,465.5c0.9,0.3,1.7,0.6,2.6,1C777.3,466.1,776.4,465.8,775.6,465.5z"/>
		<path class="st1" d="M777.3,468.6c-0.9-0.4-1.7-0.7-2.4-0.9l1.5-4.4c0.9,0.3,1.8,0.6,2.7,1L777.3,468.6z"/>
	</g>
	<g>
		<path class="st3" d="M778.4,466.5c0.9,0.4,1.7,0.8,2.6,1.2C780.1,467.3,779.2,466.9,778.4,466.5z"/>
		<path class="st1" d="M779.9,469.8L779.9,469.8c-0.8-0.4-1.6-0.8-2.4-1.1l1.8-4.3c0.9,0.4,1.8,0.8,2.7,1.3l0,0L779.9,469.8z"/>
	</g>
	<g>
		<path class="st3" d="M783.5,469.2c0.8,0.5,1.6,1,2.4,1.6C785.2,470.2,784.3,469.7,783.5,469.2z"/>
		<path class="st1" d="M784.6,472.7c-0.7-0.5-1.5-1-2.3-1.5l0,0l0,0l2.4-3.9c0.9,0.5,1.7,1.1,2.6,1.7L784.6,472.7z"/>
	</g>
	<g>
		<path class="st3" d="M723.5,501.9c0,0.9,0,1.8,0,2.8C723.5,503.7,723.5,502.8,723.5,501.9z"/>
		<path class="st1" d="M721.2,504.8c0-1-0.1-2,0-2.9l0,0l4.6,0.1c0,0.8,0,1.7,0,2.6L721.2,504.8z"/>
	</g>
	<g>
		<path class="st3" d="M723.8,507.7c-0.1-0.9-0.2-1.9-0.2-2.8C723.6,505.8,723.6,506.8,723.8,507.7z"/>
		<path class="st1" d="M721.5,508c-0.1-1-0.2-2-0.3-3l0,0l0,0l4.6-0.2l0,0l0,0l0,0c0,0.9,0.1,1.8,0.2,2.6L721.5,508z"/>
	</g>
	<g>
		<path class="st3" d="M724.9,513.5c-0.3-0.9-0.5-1.9-0.7-2.9C724.4,511.6,724.6,512.5,724.9,513.5z"/>
		<path class="st1" d="M722.7,514.1L722.7,514.1c-0.3-1-0.5-2-0.7-3l0,0l0,0l4.5-0.9l0,0l0,0l0,0c0.2,0.9,0.4,1.8,0.6,2.7l0,0
			L722.7,514.1z"/>
	</g>
	<g>
		<path class="st3" d="M724.2,510.6c-0.2-1-0.3-1.9-0.5-2.9C723.9,508.7,724,509.6,724.2,510.6z"/>
		<path class="st1" d="M722,511L722,511c-0.2-1-0.4-2-0.5-3l0,0l4.6-0.6c0.1,0.9,0.3,1.8,0.4,2.7L722,511z"/>
	</g>
	<g>
		<path class="st4" d="M723.5,504.9c0,0.9,0.1,1.9,0.2,2.8l0,0c0.1,1,0.3,1.9,0.5,2.9l0,0c0.2,1,0.4,1.9,0.7,2.9
			c1.2,4.2,3,8.2,5.7,12c1.3,1.8,2.7,3.5,4.2,5.1l0,0c9.4-2.5,21.9-8.3,35.2-17.6c13.3-9.3,23.1-19,28.6-27l0,0
			c-0.9-2-2-3.9-3.3-5.7c-2.6-3.8-5.8-6.9-9.3-9.5c-0.8-0.6-1.6-1.1-2.4-1.6l0,0c-0.8-0.5-1.7-1-2.5-1.4l0,0
			c-0.8-0.4-1.7-0.8-2.6-1.2c-0.1,0-0.1-0.1-0.2-0.1c-0.9-0.4-1.7-0.7-2.6-1c-11.5-3.9-24.6-2.4-35.3,5
			c-10.7,7.5-16.5,19.3-16.8,31.4c0,0.9,0,1.8,0,2.8C723.5,504.7,723.5,504.8,723.5,504.9z"/>
		<g>
			<g>
				<path class="st5" d="M724,498.5c-0.9,0-1.8-0.6-2.2-1.5c-0.4-1.2,0.2-2.5,1.4-3c0.1,0,10.5-3.8,16.1-8.8c1-0.8,2.4-0.8,3.3,0.2
					c0.8,1,0.8,2.4-0.2,3.3c-6.3,5.6-17.1,9.5-17.6,9.7C724.5,498.5,724.3,498.5,724,498.5z"/>
			</g>
			<g>
				<path class="st5" d="M764.2,485.5c-0.6,0-1.3-0.3-1.7-0.8c-0.9-0.9-0.8-2.4,0.2-3.3c2.6-2.4,5.2-4.9,7.7-7.5
					c0.9-0.9,2.3-0.9,3.3-0.1c0.9,0.9,0.9,2.3,0.1,3.3c-2.6,2.7-5.3,5.3-8,7.7C765.3,485.3,764.7,485.5,764.2,485.5z"/>
			</g>
			<g>
				<path class="st5" d="M723.8,510c-1,0-2-0.7-2.2-1.7c-0.3-1.2,0.4-2.5,1.7-2.8c0.2,0,11.1-3,30.3-16.5c1-0.7,2.5-0.5,3.2,0.6
					c0.7,1,0.5,2.5-0.6,3.2c-20.1,14.1-31.4,17-31.8,17.1C724.1,510,723.9,510,723.8,510z"/>
			</g>
		</g>
		<path class="st1" d="M734.1,533.1l-0.9-1c-1.7-1.7-3.2-3.5-4.5-5.4c-2.7-3.9-4.7-8.2-6-12.7c-0.3-1-0.5-2-0.7-3v-0.1
			c-0.2-0.8-0.3-1.7-0.4-2.6l-0.1-0.1v-0.4c-0.1-0.9-0.2-1.9-0.2-2.8v-0.2c0-1.1-0.1-2,0-3c0.3-13.2,7-25.6,17.8-33.2
			s24.8-9.6,37.3-5.3c0.9,0.3,1.8,0.6,2.7,1l0.2,0.1c0.9,0.4,1.7,0.7,2.5,1.1h0.1l0.2,0.2c0.9,0.4,1.7,0.9,2.6,1.4
			c0.9,0.6,1.8,1.1,2.6,1.7c3.8,2.8,7.2,6.1,9.9,10c1.3,1.9,2.5,3.9,3.5,6.1l0.6,1.2l-0.8,1.1c-6.2,9-16.6,18.8-29.2,27.6
			c-12.6,8.8-25.3,15.2-35.9,17.9L734.1,533.1z M726,507.3v0.1c0.1,0.9,0.3,1.8,0.4,2.7v0.1c0.2,0.8,0.4,1.7,0.6,2.6
			c1.1,4.1,2.9,7.9,5.3,11.3c0.9,1.3,2,2.6,3.1,3.8c9.8-2.8,21.5-8.8,33.1-16.9c11.6-8.1,21.2-17.1,27.2-25.3
			c-0.8-1.5-1.6-2.9-2.5-4.2c-2.4-3.5-5.4-6.4-8.8-8.9c-0.7-0.5-1.5-1-2.3-1.5s-1.5-0.9-2.3-1.3l-0.1-0.1c-0.8-0.4-1.6-0.8-2.4-1.1
			l-0.2-0.1c-0.8-0.3-1.6-0.7-2.4-0.9c-11.2-3.8-23.6-2-33.2,4.7c-9.6,6.7-15.6,17.8-15.9,29.5c0,0.8,0,1.7,0,2.6v0.2
			C725.9,505.6,725.9,506.5,726,507.3z"/>
	</g>
	<g>
		<path class="st4" d="M777.4,523.6c-10.2,7.1-20.2,12.3-29.5,15.8l0,0c12,4.9,26.2,3.8,37.6-4.2c11.4-8,17.3-20.9,16.8-33.9l0,0
			C796,508.8,787.6,516.5,777.4,523.6z"/>
		<g>
			<path class="st5" d="M781.9,530.8c-0.8,0-1.6-0.4-2-1.1c-0.6-1.1-0.3-2.5,0.8-3.2c13.3-7.8,18.4-16.9,18.4-17
				c0.6-1.1,2-1.5,3.1-0.9s1.5,2,0.9,3.1c-0.2,0.4-5.8,10.4-20.1,18.8C782.7,530.7,782.3,530.8,781.9,530.8z"/>
		</g>
		<path class="st1" d="M763,544.7c-5.4,0-10.8-1-15.9-3.1l-5.5-2.2l5.5-2.1c9.5-3.6,19.5-8.9,29-15.5c9.4-6.6,17.9-14.2,24.5-21.9
			l3.8-4.5l0.2,5.9c0.5,14.3-6.1,27.7-17.8,35.9C779.7,542.1,771.4,544.7,763,544.7z M754.7,539.1c10.1,2.3,20.8,0.3,29.5-5.8
			s14.2-15.4,15.6-25.7c-6.1,6.3-13.1,12.3-21,17.9C770.8,531,762.8,535.6,754.7,539.1z"/>
	</g>
</g>
<g>
	<g>
		<path class="st6" d="M494.7,77.5l8.7-3.3c1.8-0.7,3-2.2,3.4-4l4.1-20.5c0.5-2.6-0.9-5.3-3.4-6.2l-13.8-5.2
			c-1.7-0.7-3.7-0.4-5.2,0.7l-6.8,6.7c-0.8,0.8-2.1,0.3-2.2-0.8l-0.7-9.6c-0.4-1.8-1.7-3.3-3.4-4l-13.8-5.2
			c-2.5-0.9-5.3,0.1-6.7,2.4l-10.4,18.1c-0.9,1.6-1,3.6-0.1,5.3l17.4,33c1.3,2.5,4.2,3.6,6.8,2.6l5.7-2.2"/>
		<path class="st1" d="M466.5,90.4c-2.9,0-5.7-1.6-7.1-4.3l-17.4-33c-1.3-2.4-1.2-5.3,0.1-7.7l10.4-18.1c2-3.4,6.1-4.9,9.7-3.5
			L476,29c2.6,1,4.4,3.1,5,5.8v0.3l0.5,6.9l5.2-5.1c2.2-1.6,5-2,7.6-1.1l13.8,5.2c3.7,1.4,5.8,5.2,5,9.1L509,70.6
			c-0.5,2.7-2.4,4.9-5,5.9l-8.7,3.3c-1.3,0.5-2.7-0.2-3.2-1.4c-0.5-1.3,0.2-2.7,1.4-3.2l8.7-3.3c1-0.4,1.7-1.2,1.9-2.2l4.1-20.5
			c0.3-1.4-0.5-2.9-1.9-3.4l-13.8-5.2c-0.9-0.3-1.9-0.2-2.7,0.3l-6.7,6.6c-1.1,1.1-2.6,1.4-4,0.8c-1.4-0.5-2.3-1.8-2.4-3.3l-0.7-9.3
			c-0.2-0.9-0.9-1.7-1.8-2l-13.6-5.3c-1.4-0.5-2.9,0-3.6,1.3l-10.4,18.1c-0.5,0.9-0.5,2-0.1,2.9l17.4,33c0.7,1.3,2.3,1.9,3.7,1.4
			l5.7-2.2c1.3-0.5,2.7,0.2,3.2,1.4c0.5,1.3-0.2,2.7-1.4,3.2l-5.7,2.2C468.4,90.2,467.5,90.4,466.5,90.4z"/>
	</g>
	<g>
		<path class="st7" d="M453.3,48.2c-0.3,0-0.6-0.1-0.9-0.2c-1-0.5-1.3-1.7-0.8-2.7l4.5-8.4c1.4-2.6,4.5-4,7.4-3.2l7.6,2.5
			c1,0.4,1.6,1.5,1.3,2.5c-0.4,1-1.5,1.6-2.5,1.3l-7.5-2.5c-1-0.3-2.2,0.2-2.7,1.2l-4.5,8.4C454.7,47.8,454,48.2,453.3,48.2z"/>
	</g>
</g>
<g>
	<g>
		<path class="st8" d="M145,517.6l1-3.1c0.6-1.8,0.2-3.7-1-5.2l-13.4-16c-1.7-2.1-4.7-2.6-7-1.2l-12.7,7.5c-1.6,0.9-2.6,2.6-2.7,4.5
			l1,9.5c0.1,1.1-1.1,1.8-2,1.2l-7.9-5.5c-1.7-0.8-3.6-0.8-5.3,0.2L82.3,517c-2.3,1.4-3.3,4.2-2.3,6.7l7.6,19.4
			c0.7,1.8,2.2,3,4.1,3.4l36.6,7.2c2.7,0.5,5.4-1.1,6.3-3.7l4.2-13.1"/>
	</g>
	<g>
		<g>
			<path class="st1" d="M129.3,556.3c-0.5,0-1,0-1.5-0.1L91.2,549c-2.7-0.5-4.9-2.4-5.9-4.9l-7.6-19.4c-1.4-3.7,0-7.8,3.4-9.8
				l12.7-7.5c2.4-1.4,5.2-1.5,7.6-0.3l0.3,0.2l5.7,4l-0.7-7.1V504c0.1-2.7,1.6-5.2,3.9-6.6c1.2-0.7,2.7-0.3,3.4,0.9
				c0.7,1.2,0.3,2.7-0.9,3.4c-0.8,0.5-1.4,1.3-1.5,2.3l1,9.3c0.2,1.5-0.6,2.9-1.8,3.6c-1.3,0.8-2.8,0.7-4.1-0.2l-7.7-5.3
				c-0.9-0.4-1.9-0.3-2.7,0.2l-12.7,7.5c-1.3,0.7-1.8,2.3-1.3,3.7l7.6,19.4c0.4,1,1.2,1.6,2.2,1.8l36.6,7.2c1.5,0.3,2.9-0.6,3.4-2
				l11.5-35.5c0.3-1,0.1-2-0.5-2.8l-13.4-16c-0.9-1.1-2.5-1.4-3.8-0.7c-1.2,0.7-2.7,0.3-3.4-0.9c-0.7-1.2-0.3-2.7,0.9-3.4
				c3.4-2,7.7-1.3,10.2,1.8l13.4,16c1.8,2.1,2.3,4.9,1.5,7.6L137,550.8C135.8,554.1,132.7,556.3,129.3,556.3z"/>
		</g>
	</g>
	<g>
		<path class="st7" d="M92.9,538c-0.8,0-1.5-0.5-1.8-1.2l-3.7-8.7c-1.2-2.8-0.2-6,2.2-7.8l6.7-4.3c0.9-0.6,2.2-0.3,2.8,0.6
			s0.3,2.2-0.6,2.8l-6.7,4.3c-0.9,0.6-1.2,1.8-0.8,2.9l3.7,8.7c0.4,1,0,2.2-1.1,2.6C93.4,537.9,93.1,538,92.9,538z"/>
	</g>
</g>
<g>
	<path class="st0" d="M1267.6,51.7l10.5,7.2c1.5,1,3.4,1.2,5,0.6l11.9-4.6c4.2-1.6,8.4,2.3,7.2,6.6l-1.4,4.7l-2.2,7.5
		c-0.5,1.7-0.1,3.6,1,4.9l8,9.9c2.8,3.5,0.4,8.7-4,8.8l-12.7,0.4c-1.8,0.1-3.4,1-4.4,2.5l-6.9,10.7c-2.4,3.8-8.1,3.1-9.7-1.1
		l-4.3-12c-0.6-1.7-2-3-3.7-3.4l-12.3-3.3c-4.3-1.2-5.5-6.8-1.9-9.5l10.1-7.8c1.4-1.1,2.2-2.8,2.1-4.6l-0.7-12.7
		C1258.9,52,1263.9,49.2,1267.6,51.7z"/>
	<g>
		<path class="st1" d="M1275.1,115.8c-0.3,0-0.6,0-0.9-0.1c-3-0.3-5.5-2.3-6.6-5.2l-4.3-12c-0.3-0.9-1.1-1.6-2-1.8l-12.3-3.3
			c-2.9-0.8-5.1-3.1-5.7-6.1s0.5-6,2.9-7.8l10.1-7.8c0.8-0.6,1.2-1.5,1.1-2.5l-0.7-12.7c-0.2-3,1.4-5.8,4-7.3s5.9-1.4,8.4,0.4
			l10.5,7.2c0.8,0.5,1.8,0.7,2.7,0.3l11.9-4.6c2.8-1.1,6-0.5,8.2,1.6s3.1,5.1,2.2,8.1l-3.6,12.2c-0.4,1.3-1.8,2.1-3.1,1.7
			c-1.3-0.4-2.1-1.8-1.7-3.1l3.6-12.2c0.3-1.1,0-2.2-0.8-3s-2-1-3-0.6l-11.9,4.6c-2.4,0.9-5.2,0.6-7.3-0.8l-10.5-7.2
			c-0.9-0.6-2.1-0.7-3.1-0.1c-1,0.6-1.5,1.6-1.5,2.7l0.7,12.7c0.1,2.6-1,5.1-3.1,6.7l-10.1,7.8c-0.9,0.7-1.3,1.8-1.1,2.9
			c0.2,1.1,1,2,2.1,2.2l12.3,3.3c2.5,0.7,4.6,2.5,5.4,5l4.3,12c0.4,1.1,1.3,1.8,2.4,1.9s2.2-0.4,2.8-1.3l6.9-10.7
			c1.4-2.2,3.8-3.5,6.4-3.6l12.7-0.4c1.1,0,2.1-0.7,2.6-1.7s0.3-2.2-0.4-3.1c-0.9-1.1-0.7-2.6,0.4-3.5s2.6-0.7,3.5,0.4
			c1.9,2.4,2.3,5.5,1.1,8.3c-1.3,2.8-3.9,4.5-7,4.6l-12.7,0.4c-1,0-1.8,0.5-2.4,1.3l-6.9,10.7
			C1280.2,114.5,1277.7,115.8,1275.1,115.8z"/>
	</g>
</g>
<g>
	<path class="st0" d="M33.2,433.2l2.7,9.4c0.4,1.3,1.4,2.4,2.7,2.8l9.3,3.1c3.3,1.1,3.9,5.5,1,7.4l-8.1,5.5
		c-1.1,0.8-1.8,2.1-1.8,3.4v9.8c0,3.5-4,5.4-6.7,3.3l-7.7-6c-1.1-0.8-2.5-1.1-3.8-0.7l-9.3,3c-3.3,1.1-6.4-2.1-5.2-5.4l3.3-9.2
		c0.5-1.3,0.3-2.7-0.5-3.8l-5.7-7.9c-2-2.8,0.1-6.7,3.5-6.6l9.8,0.3c1.4,0,2.7-0.6,3.5-1.7L26,432C27.9,429.1,32.3,429.9,33.2,433.2
		z"/>
	<g>
		<path class="st1" d="M34.9,481.3c-1.4,0-2.9-0.5-4.1-1.4l-7.7-6c-0.4-0.3-1-0.4-1.5-0.3l-9.3,3c-2.4,0.8-5.1,0.1-6.8-1.7
			C3.6,473,3,470.4,3.9,468l3.3-9.2c0.2-0.5,0.1-1.1-0.2-1.5l-5.7-7.9c-1.5-2.1-1.7-4.8-0.5-7s3.5-3.6,6.1-3.5
			c1.4,0,2.5,1.2,2.4,2.6c0,1.4-1.2,2.5-2.6,2.4c-0.9,0-1.4,0.6-1.5,0.9s-0.4,1,0.1,1.8l5.7,7.9c1.3,1.8,1.6,4.1,0.9,6.1l-3.3,9.2
			c-0.3,0.9,0.2,1.5,0.4,1.7s0.8,0.7,1.7,0.4l9.3-3c2.1-0.7,4.4-0.3,6.1,1.1l7.7,6c0.7,0.6,1.5,0.3,1.8,0.2c0.3-0.1,0.9-0.6,0.9-1.5
			v-9.8c0-2.2,1.1-4.2,2.9-5.5l8.1-5.5c0.8-0.5,0.8-1.3,0.7-1.6c0-0.3-0.2-1.1-1.1-1.4l-9.3-3.1c-2.1-0.7-3.7-2.4-4.3-4.5l-2.7-9.4
			c-0.3-0.9-1-1.1-1.3-1.2s-1.1-0.1-1.6,0.7l-5.8,7.9c-0.8,1.1-2.4,1.4-3.5,0.5c-1.1-0.8-1.4-2.4-0.5-3.5l5.8-7.9
			c1.5-2.1,4-3.1,6.5-2.6c2.5,0.4,4.5,2.2,5.2,4.7l2.7,9.4c0.2,0.5,0.6,0.9,1.1,1.1l9.3,3.1c2.4,0.8,4.2,2.9,4.5,5.4
			c0.4,2.5-0.7,5-2.9,6.4l-8.1,5.5c-0.5,0.3-0.7,0.8-0.7,1.4v9.8c0,2.6-1.4,4.8-3.7,6C36.9,481.1,35.9,481.3,34.9,481.3z"/>
	</g>
</g>
<g>
	<g>
		<path class="st9" d="M764.5,145.6l0.1,20.7c0,0.2-0.1,0.4-0.3,0.4l-22.1,3c-0.2,0-0.4-0.1-0.4-0.4l-0.1-20.7
			c0-0.2,0.1-0.4,0.3-0.4l22.1-3C764.3,145.2,764.5,145.4,764.5,145.6z"/>
		<path class="st10" d="M765.2,146.3l8.3,12.4c0,0.1,0.1,0.1,0.1,0.2l0.1,20.1c0,0.4-0.5,0.5-0.7,0.2l-8.3-12.4
			c0-0.1-0.1-0.1-0.1-0.2l-0.1-20.1C764.5,146.1,765,145.9,765.2,146.3z"/>
		<path class="st10" d="M764.8,166.8l8.6,12.8c0.2,0.2,0,0.6-0.3,0.6l-22.1,2.9c-0.1,0-0.3,0-0.4-0.2l-8.6-12.8
			c-0.2-0.2,0-0.6,0.3-0.6l22.1-2.9C764.5,166.7,764.7,166.7,764.8,166.8z"/>
		<path class="st1" d="M775.7,178.9l-0.1-20.1c0-0.5-0.1-0.9-0.4-1.3l-8.3-12.4c-0.2-0.3-1-1.2-1.2-1.3c-0.5-0.4-1.2-0.7-1.9-0.6
			l-22.1,3c-1.2,0.2-2.1,1.2-2.1,2.4l0.1,20.7c0,0.4,0.1,0.8,0.3,1.2c0.1,0.3,0.2,0.6,0.3,0.9l8.6,12.8c0.5,0.7,1.2,1.1,2,1.1
			c0.1,0,0.2,0,0.3,0l22.1-2.9c0.8-0.1,1.5-0.6,1.9-1.4c0.1-0.3,0.2-0.5,0.2-0.8C775.6,179.7,775.7,179.3,775.7,178.9z M771.5,159.3
			l0.1,14.2l-5-7.5l-0.1-9.6v-4.6L771.5,159.3z M762.5,147.5l0.1,11.4v6l-18.9,2.5l-0.1-17.4L762.5,147.5z M745.1,171.3l18.5-2.5
			l3.3,4.9l3.3,4.9l-18.5,2.5L745.1,171.3z"/>
	</g>
	<g>
		<path class="st10" d="M178.3,332.2l1.1,20.1c0,0.1-0.1,0.2-0.2,0.3l-22.7,3.6c-0.1,0-0.3-0.1-0.3-0.2l-1.1-20.1
			c0-0.1,0.1-0.2,0.2-0.3L178,332C178.2,331.9,178.3,332,178.3,332.2z"/>
		<path class="st10" d="M155.6,355l-4.3-9.1v-0.1l-1-19.2c0-0.3,0.4-0.4,0.5-0.1l4.3,9.1v0.1l1,19.2
			C156.1,355.1,155.7,355.2,155.6,355z"/>
		<path class="st9" d="M155,335.4l-4.6-9.9c-0.1-0.2,0-0.3,0.2-0.4l22.7-3.6c0.1,0,0.2,0,0.3,0.1l4.6,9.9c0.1,0.2,0,0.3-0.2,0.4
			l-22.7,3.6C155.2,335.6,155,335.5,155,335.4z"/>
		<path class="st1" d="M180.3,332.1c0-0.2-0.1-0.5-0.2-0.7c0-0.2-0.1-0.4-0.2-0.6l-4.6-9.9c-0.4-0.9-1.4-1.4-2.4-1.3l-22.7,3.6
			c-0.7,0.1-1.3,0.5-1.6,1.2c-0.2,0.5-0.3,1-0.2,1.5c-0.1,0.2-0.1,0.5-0.1,0.8l1,19.2v0.5l4.4,9.5c0.1,0.2,0.8,1.5,1.2,1.8
			s0.9,0.5,1.4,0.5c0.1,0,0.2,0,0.4,0l22.7-3.6c1.1-0.2,2-1.2,1.9-2.3L180.3,332.1z M175.4,330.3l-6.5,1l-12.7,2l-3.1-6.6l19.1-3
			L175.4,330.3z M152.8,335.3l0.3,0.7l0.5,9.9l-0.3-0.7L152.8,335.3z M158.1,353.8l-0.9-16.5l5.9-0.9l13.3-2.1l0.9,16.5L158.1,353.8
			z"/>
	</g>
	<path class="st9" d="M1150,522.9l9.7,16.9c0.2,0.3,0.1,0.7-0.1,0.9l-15,14c-0.4,0.3-0.9,0.2-1.2-0.2l-9.7-16.9
		c-0.2-0.3-0.1-0.7,0.1-0.9l15-14C1149.2,522.4,1149.7,522.5,1150,522.9z"/>
	<path class="st10" d="M1151.2,522.5l10.7,2.7c0.2,0,0.4,0.2,0.5,0.4l9.4,16.5c0.3,0.6-0.2,1.3-0.8,1.1l-10.7-2.7
		c-0.2,0-0.4-0.2-0.5-0.4l-9.4-16.5C1150.1,523.1,1150.6,522.4,1151.2,522.5z"/>
	<path class="st10" d="M1160.4,540.5l11,2.7c0.6,0.1,0.8,0.9,0.3,1.3l-14.8,13.8c-0.2,0.2-0.4,0.2-0.7,0.2l-11-2.7
		c-0.6-0.1-0.8-0.9-0.3-1.3l14.8-13.8C1159.8,540.5,1160.1,540.4,1160.4,540.5z"/>
	<path class="st1" d="M1173.5,541l-9.4-16.5c-0.4-0.6-1-1.1-1.7-1.3l-10.7-2.7l0,0c-0.5-0.1-2.4-0.9-4.2,0.7l-15,14
		c-0.9,0.9-1.1,2.3-0.5,3.4l9.7,16.9c0.4,0.6,2.5,2,3.1,2.1l11,2.7c0.2,0.1,0.4,0.1,0.7,0.1c0.7,0,1.4-0.3,1.9-0.7l14.8-13.8
		C1173.8,545.2,1175.2,544.1,1173.5,541z M1160.9,527l7.7,13.4l-7.3-1.8l-7.7-13.4L1160.9,527z M1148.2,523.9L1148.2,523.9
		L1148.2,523.9L1148.2,523.9z M1136,537.5l13.1-12.2l2.2,3.9l6.2,10.8l-4.6,4.3l-8.4,7.9L1136,537.5z M1156,556.3l-8.1-2l5.1-4.7
		l7.5-7l8.1,2L1156,556.3z"/>
	<g>
		<path class="st10" d="M464.4,246.5l-3.9,19c0,0.1-0.1,0.3-0.3,0.3l-13.8,6.8c-0.4,0.2-0.7-0.1-0.7-0.5l3.8-18.4
			c0.1-0.5,0.4-0.9,0.9-1.1l13.3-6.5C464.1,245.8,464.5,246.1,464.4,246.5z"/>
		<path class="st9" d="M445,272.6l-15.4-8.9c-0.2-0.1-0.3-0.3-0.2-0.5l4-19.2c0.1-0.3,0.4-0.5,0.7-0.3l14.6,8.5
			c0.6,0.4,0.9,1.1,0.8,1.8l-3.8,18.4C445.6,272.6,445.3,272.8,445,272.6z"/>
		<path class="st10" d="M449,252.4l-14.7-8.5c-0.3-0.2-0.3-0.7,0-0.8l13.3-6.5c0.5-0.2,1.1-0.2,1.5,0.1l14.7,8.5
			c0.3,0.2,0.3,0.7,0,0.8l-13.3,6.5C450,252.7,449.4,252.7,449,252.4z"/>
		<path class="st1" d="M464.9,243.4l-14.7-8.5c-1.1-0.6-2.3-0.7-3.4-0.1l-13.3,6.5c-1.7,0.7-1.9,1.8-2,2.4l-4,19.2
			c-0.2,1,0.3,2.1,1.2,2.6l15.4,8.9c0.4,0.2,1.2,0.6,1.9,0.5c0.6-0.1,1-0.3,1.4-0.5l13.8-6.8c0.7-0.3,1.2-1,1.3-1.7l3.9-19
			C466.5,246.2,466.4,244.2,464.9,243.4z M448.3,238.4l12.1,7l-10.6,5.2l-0.1-0.1l0,0l-2.6-1.5l-9.4-5.5L448.3,238.4z M434.9,246.5
			L434.9,246.5l12.6,7.3l-1.3,6.4l-2,9.6l-12.6-7.3L434.9,246.5z M458.7,264.3l-10.4,5.1l3.1-15l0,0v-0.2l10.4-5.1L458.7,264.3z"/>
	</g>
	<g>
		<path class="st10" d="M45.3,28.1L42.9,46c0,0.2-0.1,0.3-0.3,0.4l-14,8.6c-0.4,0.2-0.9-0.1-0.8-0.5l2.4-17.9c0-0.2,0.1-0.3,0.3-0.4
			l14.1-8.6C44.9,27.3,45.4,27.6,45.3,28.1z"/>
		<path class="st9" d="M26.9,55.1l-15.2-8.8c-0.2-0.1-0.3-0.3-0.3-0.5l2.4-18.1c0.1-0.4,0.5-0.6,0.8-0.4l15.2,8.8
			c0.2,0.1,0.3,0.3,0.3,0.5l-2.4,18.1C27.7,55.1,27.3,55.3,26.9,55.1z"/>
		<path class="st10" d="M29.9,36.1l-15.2-8.8c-0.4-0.2-0.4-0.7,0-0.9L29,17.7c0.2-0.1,0.4-0.1,0.6,0l15.2,8.8c0.4,0.2,0.4,0.7,0,0.9
			l-14.2,8.7C30.3,36.2,30.1,36.2,29.9,36.1z"/>
		<path class="st1" d="M45.7,24.7l-15.2-8.8c-0.8-0.5-1.8-0.5-2.6,0l-14.2,8.7c-1.6,0.7-1.7,2.1-1.8,2.7L9.5,45.5
			c-0.1,1,0.4,2,1.2,2.5l15.2,8.8c0.4,0.2,2.1,0.7,3.7-0.2L43.7,48c0.7-0.4,1.1-1.1,1.2-1.8l2.4-17.9C47.4,27.7,47.9,25.9,45.7,24.7
			z M29.3,19.8L41.6,27l-11.4,7l-4-2.3l-8.3-4.8L29.3,19.8z M15.5,30.1l9,5.2l3.5,2l-2,15L13.5,45L15.5,30.1z M30.2,51.7L32,37.5
			l7.8-4.8l3.1-1.9L41,45L30.2,51.7z"/>
	</g>
</g>
<g>
	<g>
		<path class="st11" d="M817.1,424.1h-19.6c-1.4,0-2.6-0.7-3.3-1.9c-0.7-1.2-0.7-2.6,0-3.8l9.8-17c0.7-1.2,1.9-1.9,3.3-1.9
			c1.4,0,2.6,0.7,3.3,1.9l9.8,17c0.7,1.2,0.7,2.6,0,3.8C819.7,423.3,818.5,424.1,817.1,424.1z M817,420.3L817,420.3L817,420.3z
			 M797.8,420.1h19l-9.5-16.5L797.8,420.1z"/>
	</g>
	<g>
		<path class="st11" d="M975.4,160.4c-0.7,0-1.3-0.2-1.9-0.5c-1.2-0.7-1.9-1.9-1.9-3.3V137c0-1.4,0.7-2.6,1.9-3.3s2.6-0.7,3.8,0
			l17,9.8c1.2,0.7,1.9,1.9,1.9,3.3c0,1.4-0.7,2.6-1.9,3.3l-17,9.8C976.8,160.3,976.1,160.4,975.4,160.4z M975.6,137.3v19l16.5-9.5
			L975.6,137.3z M993.3,148.4L993.3,148.4L993.3,148.4z M992.3,146.7L992.3,146.7L992.3,146.7z"/>
	</g>
	<g>
		<path class="st11" d="M615.6,269.5c-0.7,0-1.3-0.2-1.9-0.5l-17-9.8c-1.2-0.7-1.9-1.9-1.9-3.3c0-1.4,0.7-2.6,1.9-3.3l17-9.8
			c1.2-0.7,2.6-0.7,3.8,0s1.9,1.9,1.9,3.3v19.6c0,1.4-0.7,2.6-1.9,3.3C616.9,269.3,616.3,269.5,615.6,269.5z M599,255.9l16.5,9.5
			v-19L599,255.9z M598.7,256L598.7,256L598.7,256z"/>
	</g>
	<g>
		<path class="st11" d="M593.2,219.5L593.2,219.5c-1.4,0-2.6-0.7-3.3-1.9l-9.8-17c-0.7-1.2-0.7-2.6,0-3.8s1.9-1.9,3.3-1.9H603
			c1.4,0,2.6,0.7,3.3,1.9s0.7,2.6,0,3.8l-9.8,17C595.8,218.8,594.6,219.5,593.2,219.5z M593.3,215.6L593.3,215.6L593.3,215.6z
			 M583.7,198.9l9.5,16.5l9.5-16.5H583.7z"/>
	</g>
	<g>
		<path class="st11" d="M368.1,397.7L368.1,397.7c1.4,0,2.6,0.7,3.3,1.9l9.8,17c0.7,1.2,0.7,2.6,0,3.8c-0.7,1.2-1.9,1.9-3.3,1.9
			h-19.6c-1.4,0-2.6-0.7-3.3-1.9c-0.7-1.2-0.7-2.6,0-3.8l9.8-17C365.5,398.4,366.8,397.7,368.1,397.7z M368,401.6L368,401.6
			L368,401.6z M377.7,418.3l-9.5-16.5l-9.5,16.5H377.7z"/>
	</g>
	<g>
		<path class="st11" d="M1297.7,254.5L1297.7,254.5c-1.4,0-2.6-0.7-3.3-1.9l-9.8-17c-0.7-1.2-0.7-2.6,0-3.8s1.9-1.9,3.3-1.9h19.6
			c1.4,0,2.6,0.7,3.3,1.9c0.7,1.2,0.7,2.6,0,3.8l-9.8,17C1300.4,253.8,1299.1,254.5,1297.7,254.5z M1297.9,250.6L1297.9,250.6
			L1297.9,250.6z M1288.2,233.9l9.5,16.5l9.5-16.5H1288.2z"/>
	</g>
	<g>
		<path class="st11" d="M346.5,565.9c-0.7,0-1.3-0.2-1.9-0.5l-17-9.8c-1.2-0.7-1.9-1.9-1.9-3.3c0-1.4,0.7-2.6,1.9-3.3l17-9.8
			c1.2-0.7,2.6-0.7,3.8,0c1.2,0.7,1.9,1.9,1.9,3.3v19.6c0,1.4-0.7,2.6-1.9,3.3C347.8,565.7,347.1,565.9,346.5,565.9z M329.8,552.3
			l16.5,9.5v-19L329.8,552.3z M328.6,550.7L328.6,550.7L328.6,550.7z"/>
	</g>
	<path class="st11" d="M1195.6,494.1l5.9-5.9c0.8-0.8,0.8-2,0-2.8s-2-0.8-2.8,0l-5.9,5.9l-5.9-5.9c-0.8-0.8-2-0.8-2.8,0
		s-0.8,2,0,2.8l5.9,5.9l-5.9,5.9c-0.8,0.8-0.8,2,0,2.8c0.4,0.4,0.9,0.6,1.4,0.6s1-0.2,1.4-0.6l5.9-5.9l5.9,5.9
		c0.4,0.4,0.9,0.6,1.4,0.6s1-0.2,1.4-0.6c0.8-0.8,0.8-2,0-2.8L1195.6,494.1z"/>
	<path class="st11" d="M467.2,178.2l5.9-5.9c0.8-0.8,0.8-2,0-2.8s-2-0.8-2.8,0l-5.9,5.9l-5.9-5.9c-0.8-0.8-2-0.8-2.8,0s-0.8,2,0,2.8
		l5.9,5.9l-5.9,5.9c-0.8,0.8-0.8,2,0,2.8c0.4,0.4,0.9,0.6,1.4,0.6s1-0.2,1.4-0.6l5.9-5.9l5.9,5.9c0.4,0.4,0.9,0.6,1.4,0.6
		s1-0.2,1.4-0.6c0.8-0.8,0.8-2,0-2.8L467.2,178.2z"/>
	<path class="st11" d="M214.8,352.7l5.9-5.9c0.8-0.8,0.8-2,0-2.8s-2-0.8-2.8,0l-5.9,5.9l-5.9-5.9c-0.8-0.8-2-0.8-2.8,0s-0.8,2,0,2.8
		l5.9,5.9l-5.9,5.9c-0.8,0.8-0.8,2,0,2.8c0.4,0.4,0.9,0.6,1.4,0.6s1-0.2,1.4-0.6l5.9-5.9l5.9,5.9c0.4,0.4,0.9,0.6,1.4,0.6
		s1-0.2,1.4-0.6c0.8-0.8,0.8-2,0-2.8L214.8,352.7z"/>
	<path class="st11" d="M767.2,264.2l5.9-5.9c0.8-0.8,0.8-2,0-2.8c-0.8-0.8-2-0.8-2.8,0l-5.9,5.9l-5.9-5.9c-0.8-0.8-2-0.8-2.8,0
		s-0.8,2,0,2.8l5.9,5.9l-5.9,5.9c-0.8,0.8-0.8,2,0,2.8c0.4,0.4,0.9,0.6,1.4,0.6s1-0.2,1.4-0.6l5.9-5.9l5.9,5.9
		c0.4,0.4,0.9,0.6,1.4,0.6s1-0.2,1.4-0.6c0.8-0.8,0.8-2,0-2.8L767.2,264.2z"/>
	<path class="st11" d="M125.1,16.5l5.9-5.9c0.8-0.8,0.8-2,0-2.8s-2-0.8-2.8,0l-5.9,5.9l-5.9-5.9c-0.8-0.8-2-0.8-2.8,0s-0.8,2,0,2.8
		l5.9,5.9l-5.9,5.9c-0.8,0.8-0.8,2,0,2.8c0.4,0.4,0.9,0.6,1.4,0.6s1-0.2,1.4-0.6l5.9-5.9l5.9,5.9c0.4,0.4,0.9,0.6,1.4,0.6
		s1-0.2,1.4-0.6c0.8-0.8,0.8-2,0-2.8L125.1,16.5z"/>
	<g>
		<path class="st11" d="M733.7,362.7c-6.8,0-12.3-5.5-12.3-12.3s5.5-12.3,12.3-12.3s12.3,5.5,12.3,12.3
			C745.9,357.2,740.4,362.7,733.7,362.7z M733.7,342.2c-4.6,0-8.3,3.7-8.3,8.3s3.7,8.3,8.3,8.3s8.3-3.7,8.3-8.3
			S738.2,342.2,733.7,342.2z"/>
	</g>
	<g>
		<path class="st11" d="M801.2,171.6c-6.8,0-12.3-5.5-12.3-12.3s5.5-12.3,12.3-12.3s12.3,5.5,12.3,12.3S808,171.6,801.2,171.6z
			 M801.2,151.1c-4.6,0-8.3,3.7-8.3,8.3s3.7,8.3,8.3,8.3s8.3-3.7,8.3-8.3S805.8,151.1,801.2,151.1z"/>
	</g>
	<g>
		<path class="st11" d="M1320.4,579.1c-6.8,0-12.3-5.5-12.3-12.3s5.5-12.3,12.3-12.3s12.3,5.5,12.3,12.3
			C1332.7,573.6,1327.2,579.1,1320.4,579.1z M1320.4,558.5c-4.6,0-8.3,3.7-8.3,8.3s3.7,8.3,8.3,8.3s8.3-3.7,8.3-8.3
			S1325,558.5,1320.4,558.5z"/>
	</g>
	<g>
		<path class="st11" d="M47.4,132.8c-6.8,0-12.3-5.5-12.3-12.3s5.5-12.3,12.3-12.3s12.3,5.5,12.3,12.3S54.2,132.8,47.4,132.8z
			 M47.4,112.2c-4.6,0-8.3,3.7-8.3,8.3c0,4.6,3.7,8.3,8.3,8.3s8.3-3.7,8.3-8.3C55.7,115.9,52,112.2,47.4,112.2z"/>
	</g>
	<g>
		<path class="st11" d="M317.3,331.8c-6.8,0-12.3-5.5-12.3-12.3s5.5-12.3,12.3-12.3s12.3,5.5,12.3,12.3S324.1,331.8,317.3,331.8z
			 M317.3,311.3c-4.6,0-8.3,3.7-8.3,8.3s3.7,8.3,8.3,8.3c4.6,0,8.3-3.7,8.3-8.3S321.9,311.3,317.3,311.3z"/>
	</g>
</g>
<g>
	<path class="st12" d="M936,185.5l-90.7,20.2c-26.9,6-43.8,32.6-37.8,59.5l51.7,232.4c6,26.9,32.6,43.8,59.5,37.8l325.6-72.4
		l60.2,37c7.5,4.6,17-2.1,15-10.7l-19.9-89.7l-5-22.4l-46.7-209.9c-6-26.9-32.6-43.8-59.5-37.8l-240.9,53.6"/>
	<path class="st13" d="M1171.9,134.3l-326.6,71.3c-26.9,6-43.8,32.6-37.8,59.5l51.7,232.4c6,26.9,32.6,43.8,59.5,37.8l325.6-72.4
		l60.8,37l-73.7-327.7C1225.4,145.3,1198.8,128.4,1171.9,134.3z"/>
	<g>
		<path class="st1" d="M907.8,539c-24,0-45.7-16.6-51.1-41L805,265.6c-6.3-28.2,11.6-56.2,39.7-62.5l47.5-10.6
			c1.3-0.3,2.7,0.5,3,1.9c0.3,1.3-0.5,2.7-1.9,3L845.8,208c-25.5,5.7-41.6,31-35.9,56.5l51.7,232.4c5.7,25.5,31,41.6,56.5,35.9
			l279.1-62.1c1.3-0.3,2.7,0.5,3,1.9c0.3,1.3-0.5,2.7-1.9,3l-279.1,62.1C915.4,538.6,911.6,539,907.8,539z M1309.8,503.9
			c-2.3,0-4.5-0.6-6.6-1.9l-59.4-36.5l-9.8,2.2c-1.3,0.3-2.7-0.5-3-1.9s0.5-2.7,1.9-3l11.7-2.6l61.1,37.6c3.1,1.9,6.3,1.1,8.3-0.3
			s3.8-4.2,3-7.8l-71.6-322.1c-2.7-12.3-10.1-22.9-20.8-29.7c-10.7-6.8-23.3-9-35.7-6.3l-279.2,62.1c-1.3,0.3-2.7-0.5-3-1.9
			c-0.3-1.3,0.5-2.7,1.9-3l279.2-62.1c13.6-3,27.7-0.6,39.5,6.9s20,19.2,23,32.8l71.6,322.1c1.1,5-0.8,9.9-5,12.9
			C1314.8,503.1,1312.3,503.9,1309.8,503.9z M1212.2,472.5c-1.1,0-2.2-0.8-2.4-2c-0.3-1.3,0.5-2.7,1.9-3l10.9-2.4
			c1.3-0.3,2.7,0.5,3,1.9c0.3,1.3-0.5,2.7-1.9,3l-10.9,2.4C1212.6,472.5,1212.4,472.5,1212.2,472.5z"/>
	</g>
</g>
<g>
	<g>
		<polygon class="st14" points="598.8,337.7 564,503.5 572.9,500.5 606.6,339.8 		"/>
		<polygon class="st14" points="614.5,341.9 581.7,497.6 590.7,494.7 622.3,344.1 		"/>
		<path class="st14" d="M583.1,333.4l-39.7,188.8l3.3-5.3c2.1-3.4,4.8-6.3,8-8.7L591,335.6L583.1,333.4z"/>
		<polygon class="st14" points="630.1,346.2 599.5,491.8 608.5,488.9 638,348.3 		"/>
		<polygon class="st14" points="567.4,329.2 518.3,562.9 530.9,542.5 575.3,331.3 		"/>
		<path class="st14" d="M420.1,347.8l1.6,4.8l9.3-44.4C418.1,319.7,416.2,335.7,420.1,347.8z"/>
		<polygon class="st14" points="692.8,363.2 670.7,468.5 679.6,465.6 700.7,365.3 		"/>
		<polygon class="st14" points="645.8,350.5 617.3,486 626.2,483.1 653.7,352.6 		"/>
		<polygon class="st14" points="661.5,354.7 635.1,480.1 644,477.2 669.3,356.8 		"/>
		<polygon class="st14" points="536.1,320.7 487.3,552.8 492.4,568.3 543.9,322.8 		"/>
		<polygon class="st14" points="457.7,299.4 436.8,398.7 441.9,414.2 465.5,301.5 		"/>
		<polygon class="st14" points="473.4,303.7 446.9,429.5 452,445 481.2,305.8 		"/>
		<path class="st14" d="M551.7,324.9l-53,252.1c2.6,1.2,5.6,1.3,8.3,0.2L559.6,327L551.7,324.9z"/>
		<polygon class="st14" points="489,307.9 457,460.4 462.1,475.8 496.9,310 		"/>
		<path class="st14" d="M440.7,301.4l-14,66.5l5.1,15.4l18-85.8C446.5,298.7,443.4,300,440.7,301.4z"/>
		<polygon class="st14" points="708.5,367.5 688.5,462.7 697.4,459.7 716.4,369.6 		"/>
		<polygon class="st14" points="504.7,312.2 467.1,491.2 472.2,506.6 512.6,314.3 		"/>
		<polygon class="st14" points="520.4,316.4 477.2,522 482.3,537.4 528.2,318.5 		"/>
		<polygon class="st14" points="677.2,359 652.9,474.3 661.8,471.4 685,361.1 		"/>
		<path class="st14" d="M786.6,390l-6.8,32.4C787.1,411.9,789.2,399.5,786.6,390z"/>
		<path class="st14" d="M771.2,384.5L759.8,439c3.5-1.6,6.7-3.5,9.5-5.6l9.8-46.8L771.2,384.5z"/>
		<polygon class="st14" points="724.2,371.7 706.3,456.8 715.2,453.9 732,373.9 		"/>
		<polygon class="st14" points="755.5,380.2 741.9,445.2 750.8,442.3 763.4,382.4 		"/>
		<polygon class="st14" points="739.9,376 724.1,451 733,448.1 747.7,378.1 		"/>
		<path class="st15" d="M786.6,390c-0.1-0.5-0.3-1-0.4-1.5l-7.1-1.9l-9.8,46.8c4.3-3.2,7.8-6.9,10.6-10.9L786.6,390z"/>
		<path class="st15" d="M763.4,382.4l-12.6,59.9l3.2-1.1c2-0.7,3.9-1.4,5.7-2.2l11.4-54.5L763.4,382.4z"/>
		<polygon class="st15" points="747.7,378.1 733,448.1 741.9,445.2 755.5,380.2 		"/>
		<polygon class="st15" points="732,373.9 715.2,453.9 724.1,451 739.9,376 		"/>
		<polygon class="st15" points="716.4,369.6 697.4,459.7 706.3,456.8 724.2,371.7 		"/>
		<polygon class="st15" points="700.7,365.3 679.6,465.6 688.5,462.7 708.5,367.5 		"/>
		<polygon class="st15" points="685,361.1 661.8,471.4 670.7,468.5 692.8,363.2 		"/>
		<polygon class="st15" points="669.3,356.8 644,477.2 652.9,474.3 677.2,359 		"/>
		<polygon class="st15" points="653.7,352.6 626.2,483.1 635.1,480.1 661.5,354.7 		"/>
		<polygon class="st15" points="638,348.3 608.5,488.9 617.3,486 645.8,350.5 		"/>
		<polygon class="st15" points="622.3,344.1 590.7,494.7 599.5,491.8 630.1,346.2 		"/>
		<polygon class="st15" points="606.6,339.8 572.9,500.5 581.7,497.6 614.5,341.9 		"/>
		<path class="st15" d="M591,335.6l-36.3,172.7c2.7-2,5.8-3.6,9.1-4.7l0.2-0.1l34.8-165.8L591,335.6z"/>
		<polygon class="st15" points="575.3,331.3 530.9,542.5 543.4,522.2 583.1,333.4 		"/>
		<path class="st15" d="M559.6,327.1L507,577.3c2-0.8,3.8-2.2,5-4.2l6.3-10.1l49.1-233.7L559.6,327.1z"/>
		<path class="st15" d="M543.9,322.8l-51.6,245.5l0.8,2.5c1,3,3.1,5.1,5.6,6.3l53-252.1L543.9,322.8z"/>
		<polygon class="st15" points="528.2,318.5 482.3,537.4 487.3,552.8 536.1,320.7 		"/>
		<polygon class="st15" points="512.6,314.3 472.2,506.6 477.2,522 520.4,316.4 		"/>
		<polygon class="st15" points="496.9,310 462.1,475.8 467.1,491.2 504.7,312.2 		"/>
		<polygon class="st15" points="481.2,305.8 452,445 457,460.4 489,307.9 		"/>
		<polygon class="st15" points="465.5,301.5 441.9,414.2 446.9,429.5 473.4,303.7 		"/>
		<path class="st15" d="M450.3,297.4c-0.2,0.1-0.3,0.1-0.5,0.2l-18,85.8l5,15.4l20.9-99.3L450.3,297.4z"/>
		<path class="st15" d="M431,308.1l-9.3,44.4l5,15.4l14-66.5C437,303.4,433.7,305.6,431,308.1z"/>
	</g>
	<g>
		<path class="st1" d="M503.9,580.4c-0.7,0-1.4-0.1-2-0.2c-5.4-0.9-9.9-5.1-11-8.7l-73-223c-1.6-4.9-4.6-17.7,2.3-30.9
			c6.1-11.5,18-19.9,35.5-25.1l0.7-0.2L788.8,388l0.3,1.5c6.6,34.8-24.7,50.1-28.3,51.7l-0.3,0.1l-196,64.6
			c-2.8,0.9-7.1,2.8-9.6,4.6l-38.3,62.2C512.2,578.8,507.5,580.4,503.9,580.4z M495.6,570c0.5,1.6,3.3,4.7,7.1,5.3
			c3.6,0.6,6.9-1.3,9.9-5.4l38.6-62.8l0.4-0.3c3.1-2.3,8.1-4.5,11.4-5.6l0.2-0.1l195.7-64.5c3.7-1.7,30.2-15,25.6-44.6l-328.2-94.4
			c-15.7,4.7-26.4,12.3-31.8,22.4c-6.2,11.8-3.1,23.6-2,27L495.6,570z"/>
	</g>
	<path class="st16" d="M766.1,421.4l-189,61.9c-6.7,2.2-12.5,6.7-16.2,12.8L528,549.5c-4.5,7.2-15.3,5.9-18-2.1L439.5,332
		c-5.2-15.8,3.4-32.8,19.2-37.9l239.9-78.6c15.8-5.2,32.8,3.4,37.9,19.2l48.7,148.8C790.4,399.3,781.8,416.3,766.1,421.4z"/>
	<g>
		<path class="st1" d="M483.1,467.8c-1.1,0-2-0.7-2.4-1.7l-43.6-133.3c-5.6-17.1,3.7-35.5,20.8-41.1l227-74.3
			c1.3-0.4,2.7,0.3,3.2,1.6c0.4,1.3-0.3,2.7-1.6,3.2l-227,74.3c-14.4,4.7-22.3,20.3-17.6,34.8l43.6,133.3c0.4,1.3-0.3,2.7-1.6,3.2
			C483.6,467.8,483.4,467.8,483.1,467.8z"/>
	</g>
	<g>
		<path class="st1" d="M488.9,485.6c-1.1,0-2-0.7-2.4-1.7l-2.4-7.2c-0.4-1.3,0.3-2.7,1.6-3.2c1.3-0.4,2.7,0.3,3.2,1.6l2.4,7.2
			c0.4,1.3-0.3,2.7-1.6,3.2C489.5,485.6,489.2,485.6,488.9,485.6z"/>
	</g>
	<g>
		<path class="st1" d="M519.5,556.7c-0.5,0-1,0-1.5-0.1c-4.9-0.6-8.9-3.8-10.4-8.5l-18-54.8c-0.4-1.3,0.3-2.7,1.6-3.2
			c1.3-0.4,2.7,0.3,3.2,1.6l18,54.8c0.9,2.8,3.3,4.7,6.2,5.1c3,0.4,5.7-1,7.2-3.5l32.9-53.4c4-6.5,10.3-11.4,17.6-13.8l189-61.9
			c7-2.3,12.7-7.2,16-13.7c3.3-6.6,3.9-14,1.6-21l-48.7-148.8c-2.3-7-7.2-12.7-13.7-16c-6.6-3.3-14-3.9-21-1.6
			c-1.3,0.4-2.7-0.3-3.2-1.6c-0.4-1.3,0.3-2.7,1.6-3.2c8.3-2.7,17.1-2,24.9,1.9c7.8,3.9,13.5,10.6,16.2,18.9l48.7,148.8
			c2.7,8.3,2,17.1-1.9,24.9s-10.6,13.5-18.9,16.2l-189,61.9c-6.2,2-11.5,6.2-14.9,11.7l-33,53.4
			C527.7,554.5,523.8,556.7,519.5,556.7z"/>
	</g>
	<g>
		<ellipse class="st1" cx="564.6" cy="353.8" rx="13" ry="13"/>
		<ellipse class="st1" cx="669.7" cy="319.6" rx="13" ry="13"/>
		<g>
			<path class="st1" d="M639.5,401.1c20.2-6.6,32.1-27,28.5-47.4c-0.6-3.2-3.7-5.1-6.8-4.1l-69.7,22.7c-3,1-4.4,4.4-3,7.3
				C597.6,398.1,619.3,407.7,639.5,401.1z"/>
		</g>
	</g>
</g>
<g>
	<g>
		<g>
			<polygon class="st17" points="264.7,143 149.2,266.9 158.3,269 270.3,148.9 			"/>
			<polygon class="st17" points="275.9,154.7 167.4,271.1 176.6,273.2 281.5,160.6 			"/>
			<path class="st17" d="M253.5,131.2L121.9,272.3l5.5-2.8c3.6-1.8,7.4-2.9,11.3-3.3l120.3-129L253.5,131.2z"/>
			<polygon class="st17" points="287.1,166.5 185.7,275.3 194.8,277.4 292.7,172.4 			"/>
			<polygon class="st17" points="242.3,119.5 79.4,294.2 100.7,283.2 247.9,125.4 			"/>
			<path class="st17" d="M106.6,59.2l-1.1,4.9l31-33.2C119.4,34.2,109.4,46.9,106.6,59.2z"/>
			<polygon class="st17" points="332,213.5 258.6,292.1 267.8,294.3 337.6,219.4 			"/>
			<polygon class="st17" points="298.3,178.2 203.9,279.5 213,281.6 304,184.1 			"/>
			<polygon class="st17" points="309.6,190 222.2,283.7 231.3,285.8 315.2,195.9 			"/>
			<polygon class="st17" points="219.8,96 58,269.5 54.4,285.3 225.4,101.9 			"/>
			<polygon class="st17" points="163.7,37.3 94.5,111.5 90.9,127.3 169.3,43.2 			"/>
			<polygon class="st17" points="174.9,49 87.2,143.1 83.6,158.9 180.6,54.9 			"/>
			<path class="st17" d="M231,107.7L55.3,296.2c1.6,2.3,4.1,4,7,4.5l174.4-187L231,107.7z"/>
			<polygon class="st17" points="186.2,60.8 79.9,174.7 76.3,190.5 191.8,66.6 			"/>
			<path class="st17" d="M148.1,30.2l-46.3,49.7l-3.7,15.8l59.8-64.1C154.5,30.8,151.2,30.4,148.1,30.2z"/>
			<polygon class="st17" points="343.2,225.2 276.9,296.4 286,298.5 348.8,231.1 			"/>
			<polygon class="st17" points="197.4,72.5 72.6,206.3 69,222.1 203,78.4 			"/>
			<polygon class="st17" points="208.6,84.3 65.3,237.9 61.7,253.7 214.2,90.1 			"/>
			<polygon class="st17" points="320.8,201.7 240.4,287.9 249.5,290 326.4,207.6 			"/>
			<path class="st17" d="M398.4,284.9l-22.6,24.2C387.5,303.9,395.7,294.3,398.4,284.9z"/>
			<path class="st17" d="M388.1,272.2l-38,40.7c3.8,0.4,7.5,0.5,11,0.1l32.6-34.9L388.1,272.2z"/>
			<polygon class="st17" points="354.4,237 295.1,300.6 304.3,302.7 360.1,242.9 			"/>
			<polygon class="st17" points="376.9,260.5 331.6,309 340.8,311.1 382.5,266.3 			"/>
			<polygon class="st17" points="365.7,248.7 313.4,304.8 322.5,306.9 371.3,254.6 			"/>
		</g>
		<g>
			<path class="st18" d="M398.4,284.9c0.1-0.5,0.3-1,0.4-1.5l-5.1-5.3L361.1,313c5.3-0.5,10.3-1.9,14.7-3.9L398.4,284.9z"/>
			<path class="st18" d="M382.5,266.3l-41.7,44.8l3.3,0.8c2.1,0.5,4.1,0.8,6.1,1l38-40.7L382.5,266.3z"/>
			<polygon class="st18" points="371.3,254.6 322.5,306.9 331.6,309 376.9,260.5 			"/>
			<polygon class="st18" points="360.1,242.9 304.3,302.7 313.4,304.8 365.7,248.7 			"/>
			<polygon class="st18" points="348.8,231.1 286,298.5 295.1,300.6 354.4,237 			"/>
			<polygon class="st18" points="337.6,219.4 267.8,294.3 276.9,296.4 343.2,225.2 			"/>
			<polygon class="st18" points="326.4,207.6 249.5,290 258.6,292.1 332,213.5 			"/>
			<polygon class="st18" points="315.2,195.9 231.3,285.8 240.4,287.9 320.8,201.7 			"/>
			<polygon class="st18" points="304,184.1 213,281.6 222.2,283.7 309.6,190 			"/>
			<polygon class="st18" points="292.7,172.4 194.8,277.4 203.9,279.5 298.3,178.2 			"/>
			<polygon class="st18" points="281.5,160.6 176.6,273.2 185.7,275.3 287.1,166.5 			"/>
			<polygon class="st18" points="270.3,148.9 158.3,269 167.4,271.1 275.9,154.7 			"/>
			<path class="st18" d="M259.1,137.1l-120.3,129c3.4-0.3,6.8-0.1,10.2,0.7h0.2L264.7,143L259.1,137.1z"/>
			<polygon class="st18" points="247.9,125.4 100.7,283.2 121.9,272.3 253.5,131.2 			"/>
			<path class="st18" d="M236.7,113.6l-174.4,187c2.1,0.4,4.3,0.1,6.5-1l10.6-5.4l162.9-174.7L236.7,113.6z"/>
			<path class="st18" d="M225.4,101.9l-171,183.4l-0.6,2.6c-0.7,3.1,0,6,1.5,8.3L231,107.7L225.4,101.9z"/>
			<polygon class="st18" points="214.2,90.1 61.7,253.7 58,269.5 219.8,96 			"/>
			<polygon class="st18" points="203,78.4 69,222.1 65.3,237.9 208.6,84.3 			"/>
			<polygon class="st18" points="191.8,66.6 76.3,190.5 72.6,206.3 197.4,72.5 			"/>
			<polygon class="st18" points="180.6,54.9 83.6,158.9 79.9,174.7 186.2,60.8 			"/>
			<polygon class="st18" points="169.3,43.2 90.9,127.3 87.2,143.1 174.9,49 			"/>
			<path class="st18" d="M158.4,31.7c-0.2,0-0.3-0.1-0.5-0.1L98.2,95.7l-3.6,15.8l69.2-74.2L158.4,31.7z"/>
			<path class="st18" d="M136.4,30.9l-31,33.2l-3.6,15.8l46.3-49.7C143.9,30,140,30.2,136.4,30.9z"/>
		</g>
	</g>
	<g>
		<path class="st1" d="M355.3,315.7c-2.7,0-4.6-0.2-5.4-0.3h-0.3l-201.2-46.1c-2.9-0.7-7.5-1.2-10.6-1l-64.9,33.5
			c-8.3,3.5-13.6,1.3-16.6-1.2c-4.2-3.5-5.8-9.4-5-13.1l2.4,0.6l-2.4-0.6l52.8-228.7c1.2-5,5.2-17.5,18-25.2
			c11.1-6.7,25.7-7.8,43.3-3.1l0.7,0.2l235.2,253.8l-0.5,1.4C390.8,312.5,366.4,315.7,355.3,315.7z M350.6,310.4
			c4,0.4,33.6,2.7,45-25L163.4,35c-15.9-4.1-29-3.2-38.8,2.7c-11.4,6.9-14.9,18.6-15.7,22.1L56.2,288.5c-0.4,1.6,0.4,5.7,3.3,8.2
			c2.7,2.3,6.6,2.5,11.3,0.5l65.5-33.8h0.5c3.8-0.4,9.3,0.3,12.7,1.1h0.2L350.6,310.4z"/>
	</g>
	<path class="st18" d="M364.6,301.2l-193.7-44.7c-6.9-1.6-14.2-0.7-20.5,2.5l-55.8,28.6c-7.5,3.9-16.2-2.8-14.3-11.1l51-220.7
		c3.7-16.2,19.9-26.3,36.1-22.5l246,56.8c16.2,3.7,26.3,19.9,22.5,36.1l-35.2,152.5C396.9,294.8,380.8,304.9,364.6,301.2z"/>
	<g>
		<path class="st1" d="M371.4,304.4c-2.5,0-4.9-0.3-7.4-0.8l-95.2-22c-1.3-0.3-2.2-1.7-1.9-3c0.3-1.3,1.7-2.2,3-1.9l95.2,22
			c7.2,1.7,14.6,0.4,20.8-3.5c6.2-3.9,10.6-10,12.3-17.2l35.2-152.5c3.4-14.8-5.8-29.6-20.7-33.1L191.2,41.3c-1.3-0.3-2.2-1.7-1.9-3
			s1.7-2.2,3-1.9l221.5,51.1c17.5,4,28.4,21.6,24.4,39.1L403,279.1c-2,8.5-7.1,15.7-14.5,20.3C383.4,302.8,377.4,304.4,371.4,304.4z
			"/>
	</g>
	<g>
		<path class="st1" d="M90,291.2c-2.7,0-5.4-0.9-7.6-2.7c-3.9-3-5.6-7.9-4.5-12.6l51-220.7c4-17.5,21.6-28.4,39.1-24.4l7.3,1.7
			c1.3,0.3,2.2,1.7,1.9,3s-1.7,2.2-3,1.9l-7.3-1.7c-14.8-3.4-29.6,5.8-33.1,20.7l-51,220.7c-0.7,2.9,0.3,5.7,2.7,7.6
			c2.4,1.8,5.3,2.1,8,0.8l55.8-28.6c6.8-3.5,14.7-4.5,22.2-2.8l80.4,18.6c1.3,0.3,2.2,1.7,1.9,3s-1.7,2.2-3,1.9L170.4,259
			c-6.3-1.5-13-0.6-18.8,2.3l-55.8,28.6C93.9,290.8,91.9,291.2,90,291.2z"/>
	</g>
	<ellipse class="st1" cx="334.7" cy="163.9" rx="13" ry="13"/>
	<g>
		<g>
			<path class="st1" d="M241.9,204.7c-1.8-1.4-3.5-3-5.1-4.8c-5.2-5.9-8.2-12.8-8.7-20.2c-0.2-2.7,1.8-4.9,4.5-5.1
				c2.6-0.2,4.9,1.8,5.1,4.5c0.3,5.2,2.5,10.2,6.3,14.4c3.9,4.3,8.7,7.1,13.9,8c2.6,0.4,4.4,2.9,3.9,5.5c-0.4,2.6-2.9,4.4-5.5,3.9
				C251.1,210.1,246.2,208,241.9,204.7z"/>
		</g>
	</g>
	<g>
		<path class="st1" d="M210.3,149.8c-1-0.7-1.6-1.8-1.8-3.1c-0.4-2.6,1.4-5.1,4-5.5c3.2-0.5,11.6-1,18.1-1.2
			c-6.2-5.4-13.7-10.1-13.8-10.1c-2.3-1.4-2.9-4.4-1.5-6.6c1.4-2.3,4.4-3,6.6-1.5c0.5,0.3,12.1,7.5,19.2,15c2.1,2.2,2.7,5.5,1.5,8.4
			c-1.3,2.8-4.1,4.6-7.2,4.5c-6.2-0.2-18.1,0.6-21.5,1.1C212.6,151,211.3,150.6,210.3,149.8z"/>
	</g>
</g>
<g>
	<path class="st0" d="M847.9,58l7.7-4.1c1.1-0.6,1.8-1.6,1.9-2.8l1-8.6c0.4-3,4-4.4,6.2-2.2l6.2,6c0.9,0.8,2.1,1.2,3.3,1l8.5-1.7
		c3-0.6,5.4,2.5,4,5.2l-3.8,7.8c-0.5,1.1-0.5,2.4,0.1,3.4l4.2,7.5c1.5,2.7-0.7,5.9-3.7,5.5l-8.6-1.2c-1.2-0.2-2.4,0.3-3.2,1.2
		l-5.9,6.4c-2.1,2.3-5.8,1.2-6.4-1.9l-1.5-8.5c-0.2-1.2-1-2.2-2.1-2.7l-7.9-3.6C845.3,63.3,845.2,59.4,847.9,58z"/>
	<g>
		<path class="st1" d="M863.2,85c-0.6,0-1.2-0.1-1.8-0.3c-2.3-0.7-3.9-2.5-4.4-4.9l-1.5-8.5c-0.1-0.4-0.3-0.7-0.7-0.9l-7.9-3.6
			c-2.2-1-3.5-3.1-3.6-5.5c-0.1-2.4,1.2-4.5,3.3-5.6l7.6-4.1c0.3-0.2,0.6-0.5,0.6-0.9l1-8.6c0.3-2.4,1.8-4.3,4.1-5.1
			c2.2-0.8,4.7-0.3,6.4,1.4l2.3,2.2c1,1,1,2.5,0.1,3.5c-1,1-2.5,1-3.5,0.1l-2.3-2.2c-0.5-0.5-1-0.3-1.2-0.3c-0.2,0.1-0.7,0.3-0.8,1
			l-1,8.6c-0.2,2-1.5,3.8-3.3,4.8l-7.6,4.1c-0.6,0.3-0.6,0.9-0.6,1.1c0,0.2,0.1,0.8,0.7,1l7.9,3.6c1.9,0.9,3.2,2.6,3.5,4.6L862,79
			c0.1,0.7,0.6,0.9,0.8,0.9c0.2,0.1,0.8,0.2,1.2-0.3l5.9-6.4c1.4-1.5,3.4-2.2,5.4-1.9l8.6,1.2c0.7,0.1,1-0.3,1.2-0.5
			c0.1-0.2,0.4-0.7,0.1-1.3l-4.2-7.5c-1-1.8-1.1-3.9-0.2-5.8l3.8-7.8c0.3-0.6,0-1.1-0.1-1.3s-0.5-0.6-1.2-0.4l-3.3,0.7
			c-1.4,0.3-2.7-0.6-2.9-2c-0.3-1.4,0.6-2.7,2-2.9l3.3-0.7c2.3-0.5,4.7,0.4,6.1,2.3c1.5,1.9,1.7,4.4,0.7,6.5l-3.8,7.8
			c-0.2,0.4-0.2,0.8,0,1.1l4.2,7.5c1.2,2.1,1.1,4.6-0.3,6.5c-1.3,2-3.6,3-6,2.6l-8.6-1.2c-0.4-0.1-0.8,0.1-1,0.4l-5.9,6.4
			C866.5,84.3,864.9,85,863.2,85z"/>
	</g>
</g>
<g>
	<g>
		<path class="st2" d="M249.2,501.8c-4.8-0.8-10.1-2.3-15.7-4.4c-9.2-3.5-19.3-8.7-29.5-15.8s-18.5-14.8-25-22.3
			c-13.3-15.6-18.2-30.3-13.1-37.7c5.3-7.6,20.6-6.6,39.9,1.9c-3.7,1.2-7.2,3-10.4,5.3c-8.7-3.1-14.9-3.3-17.1-0.2
			c-2,2.9-0.4,8.5,4.4,15.4c5.5,8,15.3,17.7,28.6,27s25.8,15.1,35.2,17.6c8.2,2.1,14,1.7,16-1.1c2.1-3.1-0.2-8.8-6.1-16
			c1.1-3.8,1.5-7.7,1.4-11.6c14.6,15.2,20.7,29.2,15.4,36.8c-1.6,2.3-4.3,3.9-7.7,4.9"/>
		<path class="st1" d="M249.2,504.1c1.1,0,2.1-0.8,2.3-1.9c0.2-1.3-0.6-2.5-1.9-2.7c-4.8-0.8-9.9-2.2-15.3-4.2
			c-9.5-3.6-19.5-8.9-29-15.5c-9.4-6.6-17.9-14.2-24.5-21.9c-12.3-14.3-17.5-28.4-12.9-34.9c4-5.7,16.3-5.4,31.9,0.6
			c-1.6,0.8-3.2,1.7-4.7,2.7c-9.5-3.2-15.9-2.8-18.6,1c-2.7,3.8-1.1,10,4.4,18c6.2,9,16.6,18.8,29.2,27.6
			c12.6,8.8,25.3,15.2,35.9,17.9c9.4,2.5,15.8,1.8,18.5-2c2.7-3.9,0.8-10-5.4-17.8c0.4-1.8,0.8-3.6,1-5.4
			c11,12.6,15.5,24.1,11.5,29.8c-1.3,1.8-3.4,3.2-6.4,4c-1.2,0.3-2,1.6-1.6,2.8c0.3,1.2,1.6,2,2.8,1.6c4-1.1,7.1-3,9-5.8
			c5.9-8.5,0.1-23.4-15.7-39.7l-4.1-4.3l0.2,5.9c0.1,3.7-0.4,7.3-1.4,10.9l-0.3,1.2l0.8,0.9c6.1,7.3,7,11.7,6,13.2
			c-1.1,1.6-5.7,2.3-13.5,0.2c-10.1-2.6-22.3-8.8-34.4-17.3c-12.1-8.5-22.1-17.9-28-26.4c-4.6-6.6-5.5-11.2-4.4-12.8
			c1-1.5,5.4-2.1,14.4,1.1l1.1,0.4l1-0.7c3-2.1,6.3-3.8,9.8-5l5.6-1.9l-5.4-2.4c-20.8-9.2-36.7-9.6-42.7-1.1s-0.9,24.1,13.2,40.5
			c7,8.1,15.5,15.7,25.4,22.6c9.9,6.9,20,12.3,30,16.1c5.6,2.1,11.1,3.6,16.1,4.5C248.9,504.1,249,504.1,249.2,504.1z"/>
	</g>
	<g>
		<path class="st3" d="M257.9,463c0-0.1,0-0.2,0-0.2S257.9,462.9,257.9,463z"/>
		<polygon class="st1" points="260.2,463.1 260.2,462.9 255.6,462.7 255.6,462.8 		"/>
	</g>
	<g>
		<path class="st3" d="M197.9,427.2C197.9,427.3,197.9,427.3,197.9,427.2C197.9,427.3,197.9,427.3,197.9,427.2z"/>
		<path class="st1" d="M199.1,429.3l0.1-0.1l-1.7-2.7L199.1,429.3z M197.9,427.2l-1.2-2L197.9,427.2z"/>
	</g>
	<g>
		<path class="st1" d="M255.6,492.3c4.2,0,7.2-1.2,8.9-3.5c2.8-4,0.7-10.5-6.2-18.8l-2.8-3.4l-1.2,4.3c-1.1,4.1-2.9,7.9-5.3,11.3
			c-1.2,1.7-2.5,3.3-4,4.8l-2.8,2.8l3.9,1C249.7,491.9,252.9,492.3,255.6,492.3z M257.3,476.4c3.7,5.3,4.3,8.6,3.4,9.8
			c-0.9,1.3-4.2,2-9.7,1c0.6-0.8,1.2-1.6,1.8-2.4C254.6,482.2,256.1,479.4,257.3,476.4z"/>
	</g>
	<g>
		<path class="st3" d="M203.2,424.5c-0.1,0-0.1,0.1-0.2,0.1C203.1,424.6,203.2,424.6,203.2,424.5z"/>
		<polygon class="st1" points="203.9,426.8 204.2,426.7 202.3,422.4 202.2,422.5 203,424.6 		"/>
	</g>
	<g>
		<path class="st3" d="M257.6,465.8L257.6,465.8L257.6,465.8z"/>
		<polygon class="st1" points="259.7,466.8 259.9,466.4 259.9,465.8 257.6,465.8 255.6,464.8 257.6,465.8 255.3,465.8 257.6,465.8 
					"/>
	</g>
	<g>
		<path class="st3" d="M200.5,425.8L200.5,425.8L200.5,425.8z"/>
		<polygon class="st1" points="201,428.1 200.5,425.9 201.7,427.8 200.5,425.9 199.9,423.6 199.5,423.7 199.2,423.9 200.5,425.8 		
			"/>
	</g>
	<g>
		<path class="st3" d="M257.2,468.7L257.2,468.7L257.2,468.7z"/>
		<path class="st1" d="M259.4,469.1l-2.3-0.4L259.4,469.1z M259.5,469.1L259.5,469.1L259.5,469.1z M257.8,468.8l-0.6-0.1l-2.3-0.4
			L257.8,468.8z"/>
	</g>
	<g>
		<path class="st3" d="M200.5,425.8c-0.9,0.4-1.7,0.9-2.5,1.4C198.8,426.7,199.6,426.3,200.5,425.8z"/>
		<path class="st1" d="M199.1,429.2L199.1,429.2L199.1,429.2L199.1,429.2c0.4-0.3,0.9-0.5,1.3-0.8c0.4-0.2,0.7-0.4,1.1-0.6l0,0l0,0
			l-2.1-4.1l0,0l0,0l0,0c-0.4,0.2-0.8,0.4-1.2,0.6c-0.5,0.3-1,0.6-1.5,0.9L199.1,429.2z"/>
	</g>
	<g>
		<path class="st3" d="M205.8,423.6c-0.9,0.3-1.7,0.6-2.6,1C204.1,424.2,205,423.9,205.8,423.6z"/>
		<path class="st1" d="M204.1,426.7c0.9-0.4,1.7-0.7,2.4-0.9l-1.5-4.4c-0.9,0.3-1.8,0.6-2.7,1L204.1,426.7z"/>
	</g>
	<g>
		<path class="st3" d="M203,424.6c-0.9,0.4-1.7,0.8-2.6,1.2C201.3,425.4,202.2,425,203,424.6z"/>
		<path class="st1" d="M201.5,427.9L201.5,427.9c0.8-0.4,1.6-0.8,2.4-1.1l-1.8-4.3c-0.9,0.4-1.8,0.8-2.7,1.3l0,0L201.5,427.9z"/>
	</g>
	<g>
		<path class="st3" d="M197.9,427.3c-0.8,0.5-1.6,1-2.4,1.6C196.2,428.3,197.1,427.8,197.9,427.3z"/>
		<path class="st1" d="M196.8,430.8c0.7-0.5,1.5-1,2.3-1.5l0,0l0,0l-2.4-3.9c-0.9,0.5-1.7,1.1-2.6,1.7L196.8,430.8z"/>
	</g>
	<g>
		<path class="st3" d="M257.9,460c0,0.9,0,1.8,0,2.8C257.9,461.8,257.9,460.9,257.9,460z"/>
		<path class="st1" d="M260.2,462.9c0-1,0.1-2,0-2.9l0,0l-4.6,0.1c0,0.8,0,1.7,0,2.6L260.2,462.9z"/>
	</g>
	<g>
		<path class="st3" d="M257.6,465.8c0.1-0.9,0.2-1.9,0.2-2.8C257.8,463.9,257.8,464.9,257.6,465.8z"/>
		<path class="st1" d="M259.9,466.1c0.1-1,0.2-2,0.3-3l0,0l0,0l-4.6-0.2l0,0l0,0l0,0c0,0.9-0.1,1.8-0.2,2.6L259.9,466.1z"/>
	</g>
	<g>
		<path class="st3" d="M256.5,471.6c0.3-0.9,0.5-1.9,0.7-2.9C257,469.7,256.8,470.6,256.5,471.6z"/>
		<path class="st1" d="M258.7,472.2L258.7,472.2c0.3-1,0.5-2,0.7-3l0,0l0,0l-4.5-0.9l0,0l0,0l0,0c-0.2,0.9-0.4,1.8-0.6,2.7l0,0
			L258.7,472.2z"/>
	</g>
	<g>
		<path class="st3" d="M257.2,468.7c0.2-1,0.3-1.9,0.5-2.9C257.5,466.8,257.4,467.7,257.2,468.7z"/>
		<path class="st1" d="M259.4,469.1L259.4,469.1c0.2-1,0.4-2,0.5-3l0,0l-4.6-0.6c-0.1,0.9-0.3,1.8-0.4,2.7L259.4,469.1z"/>
	</g>
	<g>
		<path class="st4" d="M257.9,463c0,0.9-0.1,1.9-0.2,2.8l0,0c-0.1,1-0.3,1.9-0.5,2.9l0,0c-0.2,1-0.4,1.9-0.7,2.9
			c-1.2,4.2-3,8.2-5.7,12c-1.3,1.8-2.7,3.5-4.2,5.1l0,0c-9.4-2.5-21.9-8.3-35.2-17.6s-23.1-19-28.6-27l0,0c0.9-2,2-3.9,3.3-5.7
			c2.6-3.8,5.8-6.9,9.3-9.5c0.8-0.6,1.6-1.1,2.4-1.6l0,0c0.8-0.5,1.7-1,2.5-1.4l0,0c0.8-0.4,1.7-0.8,2.6-1.2c0.1,0,0.1-0.1,0.2-0.1
			c0.9-0.4,1.7-0.7,2.6-1c11.5-3.9,24.6-2.4,35.3,5c10.7,7.5,16.5,19.3,16.8,31.4c0,0.9,0,1.8,0,2.8
			C257.9,462.8,257.9,462.9,257.9,463z"/>
		<g>
			<g>
				<path class="st5" d="M257.4,456.6c0.9,0,1.8-0.6,2.2-1.5c0.4-1.2-0.2-2.5-1.4-3c-0.1,0-10.5-3.8-16.1-8.8
					c-1-0.8-2.4-0.8-3.3,0.2c-0.8,1-0.8,2.4,0.2,3.3c6.3,5.6,17.1,9.5,17.6,9.7C256.9,456.6,257.1,456.6,257.4,456.6z"/>
			</g>
			<g>
				<path class="st5" d="M217.2,443.6c0.6,0,1.3-0.3,1.7-0.8c0.9-0.9,0.8-2.4-0.2-3.3c-2.6-2.4-5.2-4.9-7.7-7.5
					c-0.9-0.9-2.3-0.9-3.3-0.1c-0.9,0.9-0.9,2.3-0.1,3.3c2.6,2.7,5.3,5.3,8,7.7C216.1,443.4,216.7,443.6,217.2,443.6z"/>
			</g>
			<g>
				<path class="st5" d="M257.6,468.1c1,0,2-0.7,2.2-1.7c0.3-1.2-0.4-2.5-1.7-2.8c-0.2,0-11.1-3-30.3-16.5c-1-0.7-2.5-0.5-3.2,0.6
					c-0.7,1-0.5,2.5,0.6,3.2c20.1,14.1,31.4,17,31.8,17.1C257.3,468.1,257.5,468.1,257.6,468.1z"/>
			</g>
		</g>
		<path class="st1" d="M247.3,491.2l0.9-1c1.7-1.7,3.2-3.5,4.5-5.4c2.7-3.9,4.7-8.2,6-12.7c0.3-1,0.5-2,0.7-3V469
			c0.2-0.8,0.3-1.7,0.4-2.6l0.1-0.1v-0.4c0.1-0.9,0.2-1.9,0.2-2.8v-0.2c0-1.1,0.1-2,0-3c-0.3-13.2-7-25.6-17.8-33.2
			s-24.8-9.6-37.3-5.3c-0.9,0.3-1.8,0.6-2.7,1l-0.2,0.1c-0.9,0.4-1.7,0.7-2.5,1.1h-0.1l-0.2,0.2c-0.9,0.4-1.7,0.9-2.6,1.4
			c-0.9,0.6-1.8,1.1-2.6,1.7c-3.8,2.8-7.2,6.1-9.9,10c-1.3,1.9-2.5,3.9-3.5,6.1l-0.6,1.2l0.8,1.1c6.2,9,16.6,18.8,29.2,27.6
			c12.6,8.8,25.3,15.2,35.9,17.9L247.3,491.2z M255.4,465.4v0.1c-0.1,0.9-0.3,1.8-0.4,2.7v0.1c-0.2,0.8-0.4,1.7-0.6,2.6
			c-1.1,4.1-2.9,7.9-5.3,11.3c-0.9,1.3-2,2.6-3.1,3.8c-9.8-2.8-21.5-8.8-33.1-16.9s-21.2-17.1-27.2-25.3c0.8-1.5,1.6-2.9,2.5-4.2
			c2.4-3.5,5.4-6.4,8.8-8.9c0.7-0.5,1.5-1,2.3-1.5s1.5-0.9,2.3-1.3l0.1-0.1c0.8-0.4,1.6-0.8,2.4-1.1l0.2-0.1
			c0.8-0.3,1.6-0.7,2.4-0.9c11.2-3.8,23.6-2,33.2,4.7c9.6,6.7,15.6,17.8,15.9,29.5c0,0.8,0,1.7,0,2.6v0.2
			C255.5,463.7,255.5,464.6,255.4,465.4z"/>
	</g>
	<g>
		<path class="st4" d="M204,481.7c10.2,7.1,20.2,12.3,29.5,15.8l0,0c-12,4.9-26.2,3.8-37.6-4.2c-11.4-8-17.3-20.9-16.8-33.9l0,0
			C185.4,466.9,193.8,474.6,204,481.7z"/>
		<g>
			<path class="st5" d="M199.5,488.9c0.8,0,1.6-0.4,2-1.1c0.6-1.1,0.3-2.5-0.8-3.2c-13.3-7.8-18.4-16.9-18.4-17
				c-0.6-1.1-2-1.5-3.1-0.9s-1.5,2-0.9,3.1c0.2,0.4,5.8,10.4,20.1,18.8C198.7,488.8,199.1,488.9,199.5,488.9z"/>
		</g>
		<path class="st1" d="M218.4,502.8c5.4,0,10.8-1,15.9-3.1l5.5-2.2l-5.5-2.1c-9.5-3.6-19.5-8.9-29-15.5
			c-9.4-6.6-17.9-14.2-24.5-21.9l-3.8-4.5l-0.2,5.9c-0.5,14.3,6.1,27.7,17.8,35.9C201.7,500.2,210,502.8,218.4,502.8z M226.7,497.2
			c-10.1,2.3-20.8,0.3-29.5-5.8S183,476,181.6,465.7c6.1,6.3,13.1,12.3,21,17.9C210.6,489.1,218.6,493.7,226.7,497.2z"/>
	</g>
</g>
<g>
	<path class="st19" d="M1105.9,257.5l12.6,8.3c1.8,1.1,4.1,1.4,6,0.7l14.3-5.3c5-1.8,10.1,2.6,8.6,7.6l-1.7,5.4l-2.6,8.6
		c-0.6,1.9-0.1,4.1,1.2,5.6l9.6,11.3c3.4,4,0.5,10-4.8,10.1l-15.3,0.5c-2.2,0.1-4.1,1.1-5.3,2.9l-8.3,12.3
		c-2.9,4.4-9.7,3.6-11.6-1.3l-5.2-13.8c-0.7-1.9-2.4-3.4-4.4-3.9l-14.8-3.8c-5.2-1.4-6.6-7.8-2.3-10.9l12.1-8.9
		c1.7-1.3,2.6-3.2,2.5-5.3l-0.8-14.6C1095.4,257.8,1101.4,254.6,1105.9,257.5z"/>
	<g>
		<path class="st1" d="M1114.9,328.1c-0.4,0-0.7,0-1.1-0.1c-3.6-0.3-6.6-2.6-7.9-6l-5.2-13.8c-0.4-1-1.3-1.8-2.4-2.1l-14.8-3.8
			c-3.5-0.9-6.1-3.6-6.8-7c-0.7-3.4,0.6-6.9,3.5-8.9l12.1-8.9c1-0.7,1.4-1.7,1.3-2.9l-0.8-14.6c-0.2-3.4,1.7-6.6,4.8-8.4
			s7.1-1.6,10.1,0.5l12.6,8.3c1,0.6,2.2,0.8,3.2,0.3l14.3-5.3c3.4-1.3,7.2-0.6,9.8,1.8s3.7,5.8,2.6,9.3l-4.3,14
			c-0.5,1.5-2.2,2.4-3.7,1.9c-1.6-0.5-2.5-2.1-2-3.6l4.3-14c0.4-1.3,0-2.5-1-3.4s-2.4-1.1-3.6-0.7l-14.3,5.3c-2.9,1-6.2,0.7-8.8-0.9
			l-12.6-8.3c-1.1-0.7-2.5-0.8-3.7-0.1c-1.2,0.7-1.8,1.8-1.8,3.1l0.8,14.6c0.1,3-1.2,5.8-3.7,7.7l-12.1,8.9
			c-1.1,0.8-1.6,2.1-1.3,3.3c0.2,1.3,1.2,2.3,2.5,2.5l14.8,3.8c3,0.8,5.5,2.9,6.5,5.7l5.2,13.8c0.5,1.3,1.6,2.1,2.9,2.2
			c1.3,0.1,2.6-0.5,3.4-1.5l8.3-12.3c1.7-2.5,4.6-4,7.7-4.1l15.3-0.5c1.3,0,2.5-0.8,3.1-1.9c0.6-1.1,0.4-2.5-0.5-3.6
			c-1.1-1.3-0.8-3,0.5-4c1.3-1,3.1-0.8,4.2,0.5c2.3,2.8,2.8,6.3,1.3,9.5c-1.6,3.2-4.7,5.2-8.4,5.3l-15.3,0.5c-1.2,0-2.2,0.6-2.9,1.5
			l-8.3,12.3C1121,326.6,1118,328.1,1114.9,328.1z"/>
	</g>
</g>
<g>
	<path class="st20" d="M969.7,281.9l12.1,8.3c1.7,1.1,3.9,1.4,5.8,0.7l13.7-5.3c4.8-1.8,9.7,2.6,8.3,7.6l-1.6,5.4l-2.5,8.6
		c-0.6,1.9-0.1,4.1,1.2,5.6l9.2,11.3c3.2,4,0.5,10-4.6,10.1l-14.6,0.5c-2.1,0.1-3.9,1.1-5.1,2.9l-7.9,12.3
		c-2.8,4.4-9.3,3.6-11.2-1.3l-5-13.8c-0.7-1.9-2.3-3.4-4.3-3.9L949,327c-5-1.4-6.3-7.8-2.2-10.9l11.6-8.9c1.6-1.3,2.5-3.2,2.4-5.3
		l-0.8-14.6C959.7,282.2,965.4,279,969.7,281.9z"/>
	<g>
		<path class="st1" d="M978.3,355.3c-0.3,0-0.7,0-1-0.1c-3.5-0.3-6.3-2.6-7.6-6l-5-13.8c-0.3-1-1.3-1.8-2.3-2.1l-14.2-3.8
			c-3.3-0.9-5.9-3.6-6.6-7c-0.7-3.4,0.6-6.9,3.3-8.9l11.6-8.9c0.9-0.7,1.4-1.7,1.3-2.9l-0.8-14.6c-0.2-3.4,1.6-6.6,4.6-8.4
			c3-1.7,6.8-1.6,9.7,0.5l12.1,8.3c0.9,0.6,2.1,0.8,3.1,0.3l13.7-5.3c3.2-1.3,6.9-0.6,9.4,1.8c2.5,2.4,3.6,5.8,2.5,9.3l-4.1,14
			c-0.5,1.5-2.1,2.4-3.6,1.9c-1.5-0.5-2.4-2.1-2-3.6l4.1-14c0.3-1.3,0-2.5-0.9-3.4c-0.9-0.9-2.3-1.1-3.5-0.7l-13.7,5.3
			c-2.8,1-6,0.7-8.4-0.9l-12.1-8.3c-1-0.7-2.4-0.8-3.6-0.1c-1.2,0.7-1.7,1.8-1.7,3.1l0.8,14.6c0.1,3-1.2,5.8-3.6,7.7l-11.6,8.9
			c-1,0.8-1.5,2.1-1.3,3.3c0.2,1.3,1.2,2.3,2.4,2.5l14.2,3.8c2.9,0.8,5.3,2.9,6.2,5.7l5,13.8c0.5,1.3,1.5,2.1,2.8,2.2
			c1.3,0.1,2.5-0.5,3.2-1.5l7.9-12.3c1.6-2.5,4.4-4,7.4-4.1l14.6-0.5c1.3,0,2.4-0.8,3-1.9s0.3-2.5-0.5-3.6c-1-1.3-0.8-3,0.5-4
			c1.3-1,3-0.8,4,0.5c2.2,2.8,2.6,6.3,1.3,9.5c-1.5,3.2-4.5,5.2-8.1,5.3l-14.6,0.5c-1.2,0-2.1,0.6-2.8,1.5l-7.9,12.3
			C984.2,353.8,981.3,355.3,978.3,355.3z"/>
	</g>
</g>
<g>
	<g>
		<path class="st8" d="M1110.4,404.8l4.2-8.3c0.9-1.7,0.7-3.6-0.2-5.2l-10.8-17.9c-1.4-2.3-4.2-3.3-6.7-2.3l-13.7,5.4
			c-1.7,0.6-3,2.2-3.4,4l-0.5,9.5c-0.1,1.1-1.4,1.6-2.2,0.9l-7-6.6c-1.5-1.1-3.5-1.3-5.2-0.7l-13.7,5.4c-2.5,1-3.9,3.6-3.3,6.3
			l4.5,20.4c0.4,1.8,1.7,3.3,3.5,4l35.1,12.7c2.6,1,5.5-0.2,6.8-2.7l2.7-5.5"/>
		<path class="st1" d="M1098.2,433.3c-2.1,2-5.3,2.7-8.1,1.6l-35.1-12.7c-2.6-0.9-4.5-3.1-5.1-5.8l-4.5-20.4
			c-0.8-3.9,1.2-7.7,4.8-9.1l13.7-5.4c2.6-1,5.3-0.7,7.6,0.9l0.2,0.2l5,4.8l0.4-7.3c0.5-2.7,2.3-4.8,4.9-5.9l13.7-5.4
			c3.7-1.5,7.8-0.1,9.8,3.4l10.8,17.9c1.4,2.3,1.5,5.2,0.3,7.7l-4.2,8.3c-0.6,1.2-2.1,1.7-3.3,1.1c-1.2-0.6-1.7-2.1-1.1-3.3l4.2-8.3
			c0.5-1,0.4-2-0.1-2.9l-10.8-17.9c-0.7-1.2-2.3-1.8-3.7-1.2l-13.7,5.4c-0.9,0.4-1.5,1.1-1.8,2l-0.5,9.4c-0.1,1.6-1,2.8-2.4,3.3
			c-1.4,0.6-2.9,0.2-4-0.8l-6.8-6.4c-0.8-0.5-1.8-0.7-2.7-0.3l-13.6,5.2c-1.4,0.6-2.1,2-1.8,3.4l4.5,20.4c0.2,1,1,1.8,1.9,2.2
			l35.1,12.7c1.4,0.5,3-0.1,3.7-1.5l2.7-5.5c0.6-1.2,2.1-1.7,3.3-1.1c1.2,0.6,1.7,2.1,1.1,3.3l-2.7,5.5
			C1099.5,431.9,1099,432.6,1098.2,433.3z"/>
	</g>
	<g>
		<path class="st7" d="M1060.1,411c-0.2,0.2-0.5,0.3-0.8,0.5c-1.1,0.3-2.1-0.4-2.4-1.5l-2.3-9.2c-0.7-2.9,0.6-6,3.3-7.3l7.3-3.3
			c1-0.4,2.2,0,2.6,1c0.4,1,0,2.2-1,2.6l-7.2,3.2c-0.9,0.5-1.5,1.6-1.2,2.7l2.3,9.2C1060.8,409.8,1060.6,410.5,1060.1,411z"/>
	</g>
</g>
<g>
	<path class="st0" d="M369.2,498.5l7.7-4.1c1.1-0.6,1.8-1.6,1.9-2.8l1-8.6c0.4-3,4-4.4,6.2-2.2l6.2,6c0.9,0.8,2.1,1.2,3.3,1l8.5-1.7
		c3-0.6,5.4,2.5,4,5.2l-3.8,7.8c-0.5,1.1-0.5,2.4,0.1,3.4l4.2,7.5c1.5,2.7-0.7,5.9-3.7,5.5l-8.6-1.2c-1.2-0.2-2.4,0.3-3.2,1.2
		l-5.9,6.4c-2.1,2.3-5.8,1.2-6.4-1.9l-1.5-8.5c-0.2-1.2-1-2.2-2.1-2.7l-7.9-3.6C366.6,503.8,366.5,499.9,369.2,498.5z"/>
	<g>
		<path class="st1" d="M384.5,525.5c-0.6,0-1.2-0.1-1.8-0.3c-2.3-0.7-3.9-2.5-4.4-4.9l-1.5-8.5c-0.1-0.4-0.3-0.7-0.7-0.9l-7.9-3.6
			c-2.2-1-3.5-3.1-3.6-5.5s1.2-4.5,3.3-5.6l7.6-4.1c0.3-0.2,0.6-0.5,0.6-0.9l1-8.6c0.3-2.4,1.8-4.3,4.1-5.1c2.2-0.8,4.7-0.3,6.4,1.4
			l2.3,2.2c1,1,1,2.5,0.1,3.5c-1,1-2.5,1-3.5,0.1l-2.3-2.2c-0.5-0.5-1-0.3-1.2-0.3c-0.2,0.1-0.7,0.3-0.8,1l-1,8.6
			c-0.2,2-1.5,3.8-3.3,4.8l-7.6,4.1c-0.6,0.3-0.6,0.9-0.6,1.1c0,0.2,0.1,0.8,0.7,1l7.9,3.6c1.9,0.9,3.2,2.6,3.5,4.6l1.5,8.5
			c0.1,0.7,0.6,0.9,0.8,0.9c0.2,0.1,0.8,0.2,1.2-0.3l5.9-6.4c1.4-1.5,3.4-2.2,5.4-1.9l8.6,1.2c0.7,0.1,1-0.3,1.2-0.5
			c0.1-0.2,0.4-0.7,0.1-1.3l-4.2-7.5c-1-1.8-1.1-3.9-0.2-5.8l3.8-7.8c0.3-0.6,0-1.1-0.1-1.3c-0.1-0.2-0.5-0.6-1.2-0.4l-3.3,0.7
			c-1.4,0.3-2.7-0.6-2.9-2c-0.3-1.4,0.6-2.7,2-2.9l3.3-0.7c2.3-0.5,4.7,0.4,6.1,2.3c1.5,1.9,1.7,4.4,0.7,6.5l-3.8,7.8
			c-0.2,0.4-0.2,0.8,0,1.1l4.2,7.5c1.2,2.1,1.1,4.6-0.3,6.5c-1.3,2-3.6,3-6,2.6l-8.6-1.2c-0.4-0.1-0.8,0.1-1,0.4l-5.9,6.4
			C387.8,524.8,386.2,525.5,384.5,525.5z"/>
	</g>
</g>
<g>
	<path class="st0" d="M308.6,27.2l7.7-4.1c1.1-0.6,1.8-1.6,1.9-2.8l1-8.6c0.4-3,4-4.4,6.2-2.2l6.2,6c0.9,0.8,2.1,1.2,3.3,1l8.5-1.7
		c3-0.6,5.4,2.5,4,5.2l-3.8,7.8c-0.5,1.1-0.5,2.4,0.1,3.4l4.2,7.5c1.5,2.7-0.7,5.9-3.7,5.5l-8.6-1.2c-1.2-0.2-2.4,0.3-3.2,1.2
		l-5.9,6.4c-2.1,2.3-5.8,1.2-6.4-1.9l-1.5-8.5c-0.2-1.2-1-2.2-2.1-2.7l-7.9-3.6C306,32.5,305.9,28.6,308.6,27.2z"/>
	<g>
		<path class="st1" d="M323.9,54.2c-0.6,0-1.2-0.1-1.8-0.3c-2.3-0.7-3.9-2.5-4.4-4.9l-1.5-8.5c-0.1-0.4-0.3-0.7-0.7-0.9l-7.9-3.6
			c-2.2-1-3.5-3.1-3.6-5.5s1.2-4.5,3.3-5.6l7.6-4.1c0.3-0.2,0.6-0.5,0.6-0.9l1-8.6c0.3-2.4,1.8-4.3,4.1-5.1c2.2-0.8,4.7-0.3,6.4,1.4
			l2.3,2.2c1,1,1,2.5,0.1,3.5c-1,1-2.5,1-3.5,0.1l-2.3-2.2c-0.5-0.5-1-0.3-1.2-0.3c-0.2,0.1-0.7,0.3-0.8,1l-1,8.6
			c-0.2,2-1.5,3.8-3.3,4.8l-7.6,4.1c-0.6,0.3-0.6,0.9-0.6,1.1c0,0.2,0.1,0.8,0.7,1l7.9,3.6c1.9,0.9,3.2,2.6,3.5,4.6l1.5,8.5
			c0.1,0.7,0.6,0.9,0.8,0.9c0.2,0.1,0.8,0.2,1.2-0.3l5.9-6.4c1.4-1.5,3.4-2.2,5.4-1.9l8.6,1.2c0.7,0.1,1-0.3,1.2-0.5
			c0.1-0.2,0.4-0.7,0.1-1.3l-4.2-7.5c-1-1.8-1.1-3.9-0.2-5.8l3.8-7.8c0.3-0.6,0-1.1-0.1-1.3s-0.5-0.6-1.2-0.4l-3.3,0.7
			c-1.4,0.3-2.7-0.6-2.9-2c-0.3-1.4,0.6-2.7,2-2.9l3.3-0.7c2.3-0.5,4.7,0.4,6.1,2.3c1.5,1.9,1.7,4.4,0.7,6.5l-3.8,7.8
			c-0.2,0.4-0.2,0.8,0,1.1l4.2,7.5c1.2,2.1,1.1,4.6-0.3,6.5c-1.3,2-3.6,3-6,2.6l-8.6-1.2c-0.4-0.1-0.8,0.1-1,0.4l-5.9,6.4
			C327.2,53.5,325.6,54.2,323.9,54.2z"/>
	</g>
</g>
<g>
	<g>
		<path class="st2" d="M602.3,26.4c3.8,3.1,7.6,7,11.4,11.7c6.2,7.6,12.4,17.2,17.6,28.4c5.3,11.2,8.6,22.1,10.5,31.8
			c3.7,20.2,0.6,35.3-7.5,39.2c-8.4,3.9-21.1-4.6-33.6-21.6c3.8,0.8,7.7,1,11.7,0.6c6,7,11.3,10.3,14.7,8.7
			c3.2-1.5,4.6-7.2,3.9-15.5c-0.8-9.7-4.4-23-11.3-37.7c-6.9-14.7-14.8-26-21.7-32.8c-6.1-5.9-11.3-8.5-14.4-7
			c-3.4,1.6-4.2,7.7-2.7,16.9c-2.9,2.7-5.1,5.9-7,9.3c-5-20.5-3.3-35.6,5.1-39.6c2.5-1.2,5.7-1.2,9.1-0.4"/>
		<path class="st1" d="M603.4,24.4c-1-0.5-2.2-0.4-2.9,0.5c-0.8,1-0.7,2.5,0.3,3.3c3.8,3.1,7.5,6.9,11.2,11.3
			c6.4,7.9,12.4,17.5,17.4,27.9c4.8,10.4,8.4,21.2,10.3,31.2c3.5,18.5,1,33.3-6.3,36.7c-6.3,2.9-16.8-3.5-27.3-16.5
			c1.8,0.1,3.6,0.1,5.4,0c6.6,7.5,12.4,10.4,16.6,8.4c4.2-1.9,6-8.1,5.2-17.8c-0.9-10.9-5-24.6-11.5-38.5
			c-6.5-13.9-14.3-25.8-22.1-33.5c-6.9-6.9-12.8-9.5-17-7.5c-4.3,2-5.7,8.3-4.2,18.1c-1.2,1.4-2.5,2.7-3.6,4.2
			c-3.2-16.4-1.4-28.6,4.9-31.6c2-0.9,4.5-1.1,7.5-0.3c1.2,0.3,2.5-0.4,2.8-1.6c0.3-1.2-0.4-2.5-1.6-2.8c-4-1-7.6-1-10.7,0.5
			c-9.4,4.4-11.8,20.2-6.3,42.2l1.4,5.8l2.8-5.2c1.8-3.3,4-6.1,6.7-8.7l0.9-0.9l-0.2-1.2c-1.6-9.4-0.2-13.6,1.4-14.4
			c1.8-0.8,6.1,0.9,11.8,6.6c7.4,7.3,14.9,18.8,21.1,32.2c6.2,13.4,10.2,26.6,11,36.9c0.7,8-0.8,12.4-2.6,13.3
			c-1.6,0.8-5.7-0.9-11.9-8.2L613,114l-1.2,0.1c-3.6,0.3-7.4,0.1-11-0.6l-5.8-1.2l3.5,4.8c13.4,18.4,27,26.7,36.4,22.3
			c9.4-4.4,12.8-20.4,8.8-41.7c-2-10.5-5.6-21.3-10.7-32.3c-5.1-10.9-11.2-20.7-17.9-28.9c-3.8-4.6-7.8-8.7-11.7-11.9
			C603.7,24.5,603.6,24.5,603.4,24.4z"/>
	</g>
	<g>
		<path class="st3" d="M575.3,55.6c0,0.1-0.1,0.2-0.1,0.2S575.3,55.7,575.3,55.6z"/>
		<polygon class="st1" points="573.4,54.4 573.3,54.5 577.2,57 577.2,56.9 		"/>
	</g>
	<g>
		<path class="st3" d="M609.4,116.6C609.4,116.5,609.4,116.5,609.4,116.6C609.4,116.5,609.4,116.5,609.4,116.6z"/>
		<path class="st1" d="M609.4,114.2l-0.1,0l0.1,3.2L609.4,114.2z M609.4,116.6l0,2.3L609.4,116.6z"/>
	</g>
	<g>
		<path class="st1" d="M592,31.4c-3.6-2.1-6.8-2.6-9.5-1.4c-4.4,2.1-5.9,8.7-4,19.4l0.7,4.3l3.2-3.1c3-3,6.5-5.4,10.2-7.1
			c1.9-0.9,3.8-1.6,5.9-2.2l3.8-1l-2.9-2.8C596.9,34.7,594.3,32.7,592,31.4z M582.5,44.3c-0.6-6.4,0.6-9.6,2-10.2
			c1.4-0.7,4.6,0.4,8.9,4c-0.9,0.4-1.8,0.8-2.8,1.2C587.8,40.6,585.1,42.3,582.5,44.3z"/>
	</g>
	<g>
		<path class="st3" d="M603.4,116.3c0.1,0,0.1,0,0.2,0C603.6,116.3,603.5,116.2,603.4,116.3z"/>
		<polygon class="st1" points="604,114 603.7,113.9 603.2,118.6 603.3,118.5 603.7,116.3 		"/>
	</g>
	<g>
		<path class="st3" d="M577,53.3L577,53.3L577,53.3z"/>
		<polygon class="st1" points="575.7,51.4 575.3,51.7 575,52.2 577,53.3 578.2,55.2 577,53.3 579,54.5 577,53.3 		"/>
	</g>
	<g>
		<path class="st3" d="M606.4,116.5L606.4,116.5L606.4,116.5z"/>
		<polygon class="st1" points="607.1,114.3 606.5,116.4 606.4,114.2 606.5,116.4 605.8,118.7 606.2,118.8 606.6,118.8 606.4,116.5 
					"/>
	</g>
	<g>
		<path class="st3" d="M578.8,51L578.8,51L578.8,51z"/>
		<path class="st1" d="M577.1,49.6l1.8,1.5L577.1,49.6z M577,49.5L577,49.5L577,49.5z M578.3,50.6l0.5,0.4l1.8,1.5L578.3,50.6z"/>
	</g>
	<g>
		<path class="st3" d="M606.4,116.5c1,0.1,1.9,0.1,2.9,0C608.3,116.6,607.5,116.5,606.4,116.5z"/>
		<path class="st1" d="M609.3,114.3L609.3,114.3L609.3,114.3L609.3,114.3c-0.5,0.1-1,0-1.5,0c-0.4,0-0.8,0-1.3,0l0,0l0,0l-0.2,4.6
			l0,0l0,0l0,0c0.4,0,0.9,0.1,1.3,0.1c0.6,0,1.2,0,1.7,0L609.3,114.3z"/>
	</g>
	<g>
		<path class="st3" d="M600.7,115.8c0.9,0.2,1.8,0.3,2.8,0.4C602.5,116.1,601.6,115.9,600.7,115.8z"/>
		<path class="st1" d="M603.8,113.9c-1-0.1-1.8-0.2-2.5-0.4l-0.9,4.6c0.9,0.2,1.9,0.4,2.8,0.5L603.8,113.9z"/>
	</g>
	<g>
		<path class="st3" d="M603.7,116.3c1,0.1,1.9,0.2,2.9,0.3C605.5,116.5,604.6,116.4,603.7,116.3z"/>
		<path class="st1" d="M606.6,114.2L606.6,114.2c-0.9-0.1-1.8-0.1-2.6-0.2l-0.6,4.6c1,0.1,2,0.2,3,0.2l0,0L606.6,114.2z"/>
	</g>
	<g>
		<path class="st3" d="M609.4,116.5c0.9,0,1.9-0.1,2.9-0.2C611.4,116.5,610.4,116.5,609.4,116.5z"/>
		<path class="st1" d="M612.1,114c-0.9,0.1-1.8,0.1-2.7,0.1l0,0l0,0l0.1,4.6c1,0,2-0.1,3.1-0.2L612.1,114z"/>
	</g>
	<g>
		<path class="st3" d="M573.8,58.2c0.5-0.8,0.9-1.6,1.4-2.4C574.7,56.6,574.3,57.4,573.8,58.2z"/>
		<path class="st1" d="M573.3,54.5c-0.5,0.9-1.1,1.7-1.4,2.5l0,0l4,2.2c0.4-0.7,0.8-1.5,1.3-2.3L573.3,54.5z"/>
	</g>
	<g>
		<path class="st3" d="M577,53.3c-0.5,0.7-1.1,1.5-1.6,2.3C575.9,54.9,576.4,54,577,53.3z"/>
		<path class="st1" d="M575.1,51.9c-0.6,0.8-1.2,1.6-1.8,2.4l0,0l0,0l3.9,2.5l0,0l0,0l0,0c0.5-0.8,1-1.5,1.5-2.2L575.1,51.9z"/>
	</g>
	<g>
		<path class="st3" d="M580.8,48.9c-0.7,0.6-1.4,1.4-2.1,2.2C579.4,50.3,580.1,49.6,580.8,48.9z"/>
		<path class="st1" d="M579.2,47.2L579.2,47.2c-0.8,0.7-1.4,1.5-2.1,2.2l0,0l0,0l3.4,3l0,0l0,0l0,0c0.6-0.7,1.2-1.4,1.9-2l0,0
			L579.2,47.2z"/>
	</g>
	<g>
		<path class="st3" d="M578.8,51c-0.7,0.8-1.2,1.5-1.9,2.3C577.6,52.5,578.1,51.8,578.8,51z"/>
		<path class="st1" d="M577.1,49.6L577.1,49.6c-0.7,0.8-1.3,1.5-1.9,2.3l0,0l3.7,2.8c0.5-0.7,1.2-1.4,1.7-2.1L577.1,49.6z"/>
	</g>
	<g>
		<path class="st4" d="M575.3,55.6c0.5-0.8,1-1.6,1.6-2.3l0,0c0.6-0.8,1.2-1.5,1.9-2.3l0,0c0.7-0.8,1.3-1.4,2.1-2.2
			c3.1-3,6.7-5.6,10.9-7.5c2-0.9,4.1-1.7,6.2-2.3l0,0c6.9,6.9,14.8,18.1,21.7,32.8s10.5,28,11.3,37.7l0,0c-1.8,1.3-3.7,2.4-5.7,3.3
			c-4.2,2-8.5,3.1-12.8,3.6c-1,0.1-1.9,0.2-2.9,0.2l0,0c-0.9,0-2,0-2.9,0l0,0c-0.9-0.1-1.9-0.2-2.9-0.3c-0.1,0-0.1,0-0.2,0
			c-1-0.1-1.8-0.2-2.8-0.4c-11.9-2.4-22.5-10.2-28.1-22c-5.5-11.8-4.6-25,1.2-35.6c0.4-0.8,0.9-1.6,1.4-2.4
			C575.2,55.8,575.3,55.7,575.3,55.6z"/>
		<g>
			<g>
				<path class="st5" d="M572.6,61.4c-0.8-0.5-1.9-0.4-2.7,0.2c-0.9,0.8-1.1,2.3-0.3,3.3c0.1,0,7.2,8.5,9.5,15.7
					c0.5,1.2,1.7,1.9,3,1.5c1.2-0.5,1.9-1.7,1.5-3c-2.7-8-10.1-16.8-10.4-17.2C573,61.6,572.8,61.5,572.6,61.4z"/>
			</g>
			<g>
				<path class="st5" d="M600.9,92.8c-0.5-0.3-1.3-0.4-1.9-0.2c-1.2,0.3-1.9,1.7-1.5,3c1.1,3.4,2.1,6.8,2.9,10.3
					c0.3,1.2,1.5,1.9,2.8,1.7c1.2-0.3,1.9-1.5,1.7-2.8c-0.9-3.6-1.9-7.2-3.1-10.7C601.7,93.5,601.3,93,600.9,92.8z"/>
			</g>
			<g>
				<path class="st5" d="M578.1,51.3c-0.9-0.5-2.1-0.4-2.8,0.4c-0.9,0.9-0.9,2.4,0.1,3.3c0.2,0.1,8.1,8.1,18,29.4
					c0.5,1.1,1.9,1.7,3.1,1.1c1.1-0.5,1.7-1.9,1.1-3.1c-10.4-22.3-18.7-30.4-19-30.7C578.4,51.5,578.2,51.4,578.1,51.3z"/>
			</g>
		</g>
		<path class="st1" d="M598.6,36.5l-1.3,0.4c-2.3,0.6-4.5,1.4-6.6,2.4c-4.3,2-8.2,4.8-11.5,8c-0.8,0.7-1.4,1.5-2.1,2.2l-0.1,0.1
			c-0.6,0.6-1.1,1.3-1.6,2.1l-0.1,0l-0.2,0.3c-0.5,0.7-1.1,1.5-1.6,2.3l-0.1,0.2c-0.6,1-1.1,1.7-1.5,2.6
			c-6.3,11.6-6.7,25.7-1.2,37.7s16.7,20.7,29.7,23.2c0.9,0.2,1.9,0.4,2.8,0.5l0.2,0c1,0.1,1.8,0.2,2.7,0.3l0.1,0l0.3-0.1
			c1,0.1,1.9,0.1,3,0.1c1.1-0.1,2.1-0.1,3.1-0.2c4.7-0.5,9.3-1.7,13.6-3.7c2.1-1,4.1-2.1,6.1-3.5l1.1-0.7l-0.1-1.4
			c-0.9-10.9-5-24.6-11.5-38.5c-6.5-13.9-14.3-25.8-22.1-33.5L598.6,36.5z M578.7,54.8L578.7,54.8c0.6-0.8,1.2-1.5,1.7-2.2l0-0.1
			c0.6-0.6,1.2-1.3,1.8-2c3-3,6.5-5.4,10.2-7.1c1.4-0.7,3-1.3,4.6-1.7c7.1,7.3,14.2,18.4,20.2,31.2c6,12.8,9.8,25.4,10.9,35.5
			c-1.4,0.9-2.8,1.7-4.3,2.4c-3.8,1.8-7.9,2.8-12.1,3.3c-0.9,0.1-1.8,0.1-2.7,0.1s-1.7,0-2.6,0l-0.1,0c-0.9-0.1-1.8-0.1-2.6-0.2
			l-0.2,0c-0.8-0.1-1.7-0.2-2.5-0.4c-11.6-2.3-21.4-10.1-26.4-20.7c-5-10.6-4.6-23.2,1-33.5c0.4-0.7,0.8-1.5,1.3-2.3l0.1-0.2
			C577.7,56.2,578.2,55.4,578.7,54.8z"/>
	</g>
	<g>
		<path class="st4" d="M631.3,66.4c-5.3-11.2-11.3-20.8-17.6-28.4l0,0c12.8,1.8,24.6,9.8,30.5,22.4c5.9,12.6,4.5,26.7-2.4,37.8l0,0
			C640.1,88.5,636.6,77.6,631.3,66.4z"/>
		<g>
			<path class="st5" d="M638.8,62.4c-0.7-0.4-1.6-0.5-2.3,0c-1.1,0.7-1.5,2-0.9,3.2c7.6,13.4,7.5,23.8,7.4,23.9c0,1.3,1,2.3,2.2,2.3
				c1.3,0,2.3-1,2.3-2.2c0-0.4,0.2-11.9-8-26.3C639.5,62.9,639.2,62.6,638.8,62.4z"/>
		</g>
		<path class="st1" d="M629.4,40.9c-4.7-2.7-9.9-4.5-15.3-5.3l-5.9-0.8l3.7,4.6c6.4,7.9,12.4,17.5,17.4,27.9
			c4.8,10.4,8.4,21.2,10.3,31.2l1,5.8l3.1-5c7.6-12.1,8.6-27,2.5-40C642.6,51.5,636.7,45.1,629.4,40.9z M619.4,41.6
			c9.9,3.1,18.2,10.1,22.6,19.8s4.6,20.4,0.7,30.1c-2.1-8.5-5.2-17.2-9.2-26C629.3,56.7,624.7,48.7,619.4,41.6z"/>
	</g>
</g>
<g>
	<g>
		<path class="st2" d="M1131.6,25.8c-4.8,0.8-10.1,2.3-15.7,4.4c-9.2,3.5-19.3,8.7-29.5,15.8c-10.2,7.1-18.5,14.8-25,22.3
			c-13.3,15.6-18.2,30.3-13.1,37.7c5.3,7.6,20.6,6.6,39.9-1.9c-3.7-1.2-7.2-3-10.4-5.3c-8.7,3.1-14.9,3.3-17.1,0.2
			c-2-2.9-0.4-8.5,4.4-15.4c5.5-8,15.3-17.7,28.6-27c13.3-9.3,25.8-15.1,35.2-17.6c8.2-2.1,14-1.7,16,1.1c2.1,3.1-0.2,8.8-6.1,16
			c1.1,3.8,1.5,7.7,1.4,11.6c14.6-15.2,20.7-29.2,15.4-36.8c-1.6-2.3-4.3-3.9-7.7-4.9"/>
		<path class="st1" d="M1131.6,23.5c1.1,0,2.1,0.8,2.3,1.9c0.2,1.3-0.6,2.5-1.9,2.7c-4.8,0.8-9.9,2.2-15.3,4.2
			c-9.5,3.6-19.5,8.9-29,15.5c-9.4,6.6-17.9,14.2-24.5,21.9c-12.3,14.3-17.5,28.4-12.9,34.9c4,5.7,16.3,5.4,31.9-0.6
			c-1.6-0.8-3.2-1.7-4.7-2.7c-9.5,3.2-15.9,2.8-18.6-1c-2.7-3.8-1.1-10,4.4-18c6.2-9,16.6-18.8,29.2-27.6
			c12.6-8.8,25.3-15.2,35.9-17.9c9.4-2.5,15.8-1.8,18.5,2c2.7,3.9,0.8,10-5.4,17.8c0.4,1.8,0.8,3.6,1,5.4
			c11-12.6,15.5-24.1,11.5-29.8c-1.3-1.8-3.4-3.2-6.4-4c-1.2-0.3-2-1.6-1.6-2.8c0.3-1.2,1.6-2,2.8-1.6c4,1.1,7.1,3,9,5.8
			c5.9,8.5,0.1,23.4-15.7,39.7l-4.1,4.3l0.2-5.9c0.1-3.7-0.4-7.3-1.4-10.9l-0.3-1.2l0.8-0.9c6.1-7.3,7-11.7,6-13.2
			c-1.1-1.6-5.7-2.3-13.5-0.2c-10.1,2.6-22.3,8.8-34.4,17.3s-22.1,17.9-28,26.4c-4.6,6.6-5.5,11.2-4.4,12.8c1,1.5,5.4,2.1,14.4-1.1
			l1.1-0.4l1,0.7c3,2.1,6.3,3.8,9.8,5l5.6,1.9l-5.4,2.4c-20.8,9.2-36.7,9.6-42.7,1.1s-0.9-24.1,13.2-40.5c7-8.1,15.5-15.7,25.4-22.6
			c9.9-6.9,20-12.3,30-16.1c5.6-2.1,11.1-3.6,16.1-4.5C1131.3,23.5,1131.4,23.5,1131.6,23.5z"/>
	</g>
	<g>
		<path class="st3" d="M1140.3,64.6c0,0.1,0,0.2,0,0.2S1140.3,64.7,1140.3,64.6z"/>
		<polygon class="st1" points="1142.6,64.5 1142.6,64.7 1138,64.9 1138,64.8 		"/>
	</g>
	<g>
		<path class="st3" d="M1080.3,100.4C1080.3,100.3,1080.3,100.3,1080.3,100.4C1080.3,100.3,1080.3,100.3,1080.3,100.4z"/>
		<path class="st1" d="M1081.5,98.3l0.1,0.1l-1.7,2.7L1081.5,98.3z M1080.3,100.4l-1.2,2L1080.3,100.4z"/>
	</g>
	<g>
		<path class="st1" d="M1138,35.3c4.2,0,7.2,1.2,8.9,3.5c2.8,4,0.7,10.5-6.2,18.8l-2.8,3.4l-1.2-4.3c-1.1-4.1-2.9-7.9-5.3-11.3
			c-1.2-1.7-2.5-3.3-4-4.8l-2.8-2.8l3.9-1C1132.1,35.7,1135.3,35.3,1138,35.3z M1139.7,51.2c3.7-5.3,4.3-8.6,3.4-9.8
			c-0.9-1.3-4.2-2-9.7-1c0.6,0.8,1.2,1.6,1.8,2.4C1137,45.4,1138.5,48.2,1139.7,51.2z"/>
	</g>
	<g>
		<path class="st3" d="M1085.6,103.1c-0.1,0-0.1-0.1-0.2-0.1C1085.5,103,1085.6,103,1085.6,103.1z"/>
		<polygon class="st1" points="1086.3,100.8 1086.6,100.9 1084.7,105.2 1084.6,105.1 1085.4,103 		"/>
	</g>
	<g>
		<path class="st3" d="M1140,61.8L1140,61.8L1140,61.8z"/>
		<polygon class="st1" points="1142.1,60.8 1142.3,61.2 1142.3,61.8 1140,61.8 1138,62.8 1140,61.8 1137.7,61.8 1140,61.8 		"/>
	</g>
	<g>
		<path class="st3" d="M1082.9,101.8L1082.9,101.8L1082.9,101.8z"/>
		<polygon class="st1" points="1083.4,99.5 1082.9,101.7 1084.1,99.8 1082.9,101.7 1082.3,104 1081.9,103.9 1081.6,103.7 
			1082.9,101.8 		"/>
	</g>
	<g>
		<path class="st3" d="M1139.6,58.9L1139.6,58.9L1139.6,58.9z"/>
		<path class="st1" d="M1141.8,58.5l-2.3,0.4L1141.8,58.5z M1141.9,58.5L1141.9,58.5L1141.9,58.5z M1140.2,58.8l-0.6,0.1l-2.3,0.4
			L1140.2,58.8z"/>
	</g>
	<g>
		<path class="st3" d="M1082.9,101.8c-0.9-0.4-1.7-0.9-2.5-1.4C1081.2,100.9,1082,101.3,1082.9,101.8z"/>
		<path class="st1" d="M1081.5,98.4L1081.5,98.4L1081.5,98.4L1081.5,98.4c0.4,0.3,0.9,0.5,1.3,0.8c0.4,0.2,0.7,0.4,1.1,0.6l0,0l0,0
			l-2.1,4.1l0,0l0,0l0,0c-0.4-0.2-0.8-0.4-1.2-0.6c-0.5-0.3-1-0.6-1.5-0.9L1081.5,98.4z"/>
	</g>
	<g>
		<path class="st3" d="M1088.2,104c-0.9-0.3-1.7-0.6-2.6-1C1086.5,103.4,1087.4,103.7,1088.2,104z"/>
		<path class="st1" d="M1086.5,100.9c0.9,0.4,1.7,0.7,2.4,0.9l-1.5,4.4c-0.9-0.3-1.8-0.6-2.7-1L1086.5,100.9z"/>
	</g>
	<g>
		<path class="st3" d="M1085.4,103c-0.9-0.4-1.7-0.8-2.6-1.2C1083.7,102.2,1084.6,102.6,1085.4,103z"/>
		<path class="st1" d="M1083.9,99.7L1083.9,99.7c0.8,0.4,1.6,0.8,2.4,1.1l-1.8,4.3c-0.9-0.4-1.8-0.8-2.7-1.3l0,0L1083.9,99.7z"/>
	</g>
	<g>
		<path class="st3" d="M1080.3,100.3c-0.8-0.5-1.6-1-2.4-1.6C1078.6,99.3,1079.5,99.8,1080.3,100.3z"/>
		<path class="st1" d="M1079.2,96.8c0.7,0.5,1.5,1,2.3,1.5l0,0l0,0l-2.4,3.9c-0.9-0.5-1.7-1.1-2.6-1.7L1079.2,96.8z"/>
	</g>
	<g>
		<path class="st3" d="M1140.3,67.6c0-0.9,0-1.8,0-2.8C1140.3,65.8,1140.3,66.7,1140.3,67.6z"/>
		<path class="st1" d="M1142.6,64.7c0,1,0.1,2,0,2.9l0,0l-4.6-0.1c0-0.8,0-1.7,0-2.6L1142.6,64.7z"/>
	</g>
	<g>
		<path class="st3" d="M1140,61.8c0.1,0.9,0.2,1.9,0.2,2.8C1140.2,63.7,1140.2,62.7,1140,61.8z"/>
		<path class="st1" d="M1142.3,61.5c0.1,1,0.2,2,0.3,3l0,0l0,0l-4.6,0.2l0,0l0,0l0,0c0-0.9-0.1-1.8-0.2-2.6L1142.3,61.5z"/>
	</g>
	<g>
		<path class="st3" d="M1138.9,56c0.3,0.9,0.5,1.9,0.7,2.9C1139.4,57.9,1139.2,57,1138.9,56z"/>
		<path class="st1" d="M1141.1,55.4L1141.1,55.4c0.3,1,0.5,2,0.7,3l0,0l0,0l-4.5,0.9l0,0l0,0l0,0c-0.2-0.9-0.4-1.8-0.6-2.7l0,0
			L1141.1,55.4z"/>
	</g>
	<g>
		<path class="st3" d="M1139.6,58.9c0.2,1,0.3,1.9,0.5,2.9C1139.9,60.8,1139.8,59.9,1139.6,58.9z"/>
		<path class="st1" d="M1141.8,58.5L1141.8,58.5c0.2,1,0.4,2,0.5,3l0,0l-4.6,0.6c-0.1-0.9-0.3-1.8-0.4-2.7L1141.8,58.5z"/>
	</g>
	<g>
		<path class="st4" d="M1140.3,64.6c0-0.9-0.1-1.9-0.2-2.8l0,0c-0.1-1-0.3-1.9-0.5-2.9l0,0c-0.2-1-0.4-1.9-0.7-2.9
			c-1.2-4.2-3-8.2-5.7-12c-1.3-1.8-2.7-3.5-4.2-5.1l0,0c-9.4,2.5-21.9,8.3-35.2,17.6c-13.3,9.3-23.1,19-28.6,27l0,0
			c0.9,2,2,3.9,3.3,5.7c2.6,3.8,5.8,6.9,9.3,9.5c0.8,0.6,1.6,1.1,2.4,1.6l0,0c0.8,0.5,1.7,1,2.5,1.4l0,0c0.8,0.4,1.7,0.8,2.6,1.2
			c0.1,0,0.1,0.1,0.2,0.1c0.9,0.4,1.7,0.7,2.6,1c11.5,3.9,24.6,2.4,35.3-5c10.7-7.5,16.5-19.3,16.8-31.4c0-0.9,0-1.8,0-2.8
			C1140.3,64.8,1140.3,64.7,1140.3,64.6z"/>
		<g>
			<g>
				<path class="st5" d="M1139.8,71c0.9,0,1.8,0.6,2.2,1.5c0.4,1.2-0.2,2.5-1.4,3c-0.1,0-10.5,3.8-16.1,8.8c-1,0.8-2.4,0.8-3.3-0.2
					c-0.8-1-0.8-2.4,0.2-3.3c6.3-5.6,17.1-9.5,17.6-9.7C1139.3,71,1139.5,71,1139.8,71z"/>
			</g>
			<g>
				<path class="st5" d="M1099.6,84c0.6,0,1.3,0.3,1.7,0.8c0.9,0.9,0.8,2.4-0.2,3.3c-2.6,2.4-5.2,4.9-7.7,7.5
					c-0.9,0.9-2.3,0.9-3.3,0.1c-0.9-0.9-0.9-2.3-0.1-3.3c2.6-2.7,5.3-5.3,8-7.7C1098.5,84.2,1099.1,84,1099.6,84z"/>
			</g>
			<g>
				<path class="st5" d="M1140,59.5c1,0,2,0.7,2.2,1.7c0.3,1.2-0.4,2.5-1.7,2.8c-0.2,0-11.1,3-30.3,16.5c-1,0.7-2.5,0.5-3.2-0.6
					c-0.7-1-0.5-2.5,0.6-3.2c20.1-14.1,31.4-17,31.8-17.1C1139.7,59.5,1139.9,59.5,1140,59.5z"/>
			</g>
		</g>
		<path class="st1" d="M1129.7,36.4l0.9,1c1.7,1.7,3.2,3.5,4.5,5.4c2.7,3.9,4.7,8.2,6,12.7c0.3,1,0.5,2,0.7,3v0.1
			c0.2,0.8,0.3,1.7,0.4,2.6l0.1,0.1v0.4c0.1,0.9,0.2,1.9,0.2,2.8v0.2c0,1.1,0.1,2,0,3c-0.3,13.2-7,25.6-17.8,33.2
			c-10.8,7.6-24.8,9.6-37.3,5.3c-0.9-0.3-1.8-0.6-2.7-1l-0.2-0.1c-0.9-0.4-1.7-0.7-2.5-1.1h-0.1l-0.2-0.2c-0.9-0.4-1.7-0.9-2.6-1.4
			c-0.9-0.6-1.8-1.1-2.6-1.7c-3.8-2.8-7.2-6.1-9.9-10c-1.3-1.9-2.5-3.9-3.5-6.1l-0.6-1.2l0.8-1.1c6.2-9,16.6-18.8,29.2-27.6
			c12.6-8.8,25.3-15.2,35.9-17.9L1129.7,36.4z M1137.8,62.2v-0.1c-0.1-0.9-0.3-1.8-0.4-2.7v-0.1c-0.2-0.8-0.4-1.7-0.6-2.6
			c-1.1-4.1-2.9-7.9-5.3-11.3c-0.9-1.3-2-2.6-3.1-3.8c-9.8,2.8-21.5,8.8-33.1,16.9s-21.2,17.1-27.2,25.3c0.8,1.5,1.6,2.9,2.5,4.2
			c2.4,3.5,5.4,6.4,8.8,8.9c0.7,0.5,1.5,1,2.3,1.5c0.8,0.5,1.5,0.9,2.3,1.3l0.1,0.1c0.8,0.4,1.6,0.8,2.4,1.1l0.2,0.1
			c0.8,0.3,1.6,0.7,2.4,0.9c11.2,3.8,23.6,2,33.2-4.7s15.6-17.8,15.9-29.5c0-0.8,0-1.7,0-2.6v-0.2
			C1137.9,63.9,1137.9,63,1137.8,62.2z"/>
	</g>
	<g>
		<path class="st4" d="M1086.4,45.9c10.2-7.1,20.2-12.3,29.5-15.8l0,0c-12-4.9-26.2-3.8-37.6,4.2c-11.4,8-17.3,20.9-16.8,33.9l0,0
			C1067.8,60.7,1076.2,53,1086.4,45.9z"/>
		<g>
			<path class="st5" d="M1081.9,38.7c0.8,0,1.6,0.4,2,1.1c0.6,1.1,0.3,2.5-0.8,3.2c-13.3,7.8-18.4,16.9-18.4,17
				c-0.6,1.1-2,1.5-3.1,0.9s-1.5-2-0.9-3.1c0.2-0.4,5.8-10.4,20.1-18.8C1081.1,38.8,1081.5,38.7,1081.9,38.7z"/>
		</g>
		<path class="st1" d="M1100.8,24.8c5.4,0,10.8,1,15.9,3.1l5.5,2.2l-5.5,2.1c-9.5,3.6-19.5,8.9-29,15.5
			c-9.4,6.6-17.9,14.2-24.5,21.9l-3.8,4.5l-0.2-5.9c-0.5-14.3,6.1-27.7,17.8-35.9C1084.1,27.4,1092.4,24.8,1100.8,24.8z
			 M1109.1,30.4c-10.1-2.3-20.8-0.3-29.5,5.8c-8.7,6.1-14.2,15.4-15.6,25.7c6.1-6.3,13.1-12.3,21-17.9
			C1093,38.5,1101,33.9,1109.1,30.4z"/>
	</g>
</g>
</svg>
