<?xml version="1.0" encoding="iso-8859-1"?>
<!-- Generator: Adobe Illustrator 19.0.0, SVG Export Plug-In . SVG Version: 6.00 Build 0)  -->
<svg version="1.1" id="Capa_1" xmlns="http://www.w3.org/2000/svg" xmlns:xlink="http://www.w3.org/1999/xlink" x="0px" y="0px"
	 viewBox="0 0 512 512" style="enable-background:new 0 0 512 512;" xml:space="preserve">
<linearGradient id="SVGID_1_" gradientUnits="userSpaceOnUse" x1="0.5957" y1="257.2285" x2="512.5957" y2="257.2285" gradientTransform="matrix(0.9981 0 0 -0.9981 -0.0955 512.7271)">
	<stop  offset="0" style="stop-color:#00F2FE"/>
	<stop  offset="0.021" style="stop-color:#03EFFE"/>
	<stop  offset="0.293" style="stop-color:#24D2FE"/>
	<stop  offset="0.554" style="stop-color:#3CBDFE"/>
	<stop  offset="0.796" style="stop-color:#4AB0FE"/>
	<stop  offset="1" style="stop-color:#4FACFE"/>
</linearGradient>
<path style="fill:url(#SVGID_1_);" d="M491.54,352.312c11.024,0,19.961-8.937,19.961-19.961V202.604
	c0-44.026-35.818-79.844-79.844-79.844h-41.918V79.844C389.739,35.818,353.921,0,309.895,0H80.343
	C36.317,0,0.499,35.818,0.499,79.844v229.552c0,44.026,35.818,79.844,79.844,79.844h41.918v42.916
	c0,44.026,35.818,79.844,79.844,79.844h229.552c44.026,0,79.844-35.818,79.844-79.844c0-11.024-8.937-19.961-19.961-19.961
	c-11.024,0-19.961,8.937-19.961,19.961c0,22.013-17.909,39.922-39.922,39.922H202.105c-22.013,0-39.922-17.909-39.922-39.922
	V202.604c0-22.013,17.909-39.922,39.922-39.922h229.552c22.013,0,39.922,17.909,39.922,39.922v129.747
	C471.579,343.375,480.516,352.312,491.54,352.312z M349.817,82.983v39.777h-39.777L349.817,82.983z M122.261,202.604v51.474
	l-76.033,76.032c-3.684-6.042-5.808-13.135-5.808-20.716v-31.354l82.143-82.143C122.379,198.112,122.261,200.344,122.261,202.604z
	 M40.421,221.583v-56.932L165.02,40.065c0.046-0.046,0.084-0.097,0.129-0.143h56.933L40.421,221.583z M80.343,39.922h28.358
	l-68.28,68.273V79.844C40.421,57.831,58.33,39.922,80.343,39.922z M83.482,349.318l38.779-38.779v38.779H83.482z M195.399,123.063
	l78.208-78.208c1.489-1.489,2.689-3.157,3.609-4.932h32.678c7.58,0,14.673,2.124,20.717,5.808l-76.748,76.749
	c-0.091,0.091-0.167,0.19-0.255,0.281h-51.503C199.845,122.76,197.613,122.878,195.399,123.063z"/>
<g>
</g>
<g>
</g>
<g>
</g>
<g>
</g>
<g>
</g>
<g>
</g>
<g>
</g>
<g>
</g>
<g>
</g>
<g>
</g>
<g>
</g>
<g>
</g>
<g>
</g>
<g>
</g>
<g>
</g>
</svg>
